<svg xmlns="http://www.w3.org/2000/svg" viewBox="0 0 185 154"><defs><style>.cls-1{fill:#fff;stroke:#fff;stroke-miterlimit:10;}.cls-2{fill:none;}.cls-3{fill:#099;fill-rule:evenodd;}</style></defs><title>siemens</title><g id="Layer_2" data-name="Layer 2"><g id="Layer_1-2" data-name="Layer 1"><rect class="cls-1" x="0.5" y="0.5" width="184" height="153"/><g id="BoundingBox"><polygon class="cls-2" points="7.6 90.5 177.41 90.5 177.41 63.5 7.6 63.5 7.6 63.5 7.6 90.5"/></g><g id="SIEMENS"><path class="cls-3" d="M8.11,89.47v-5.1a26.29,26.29,0,0,0,7.71,1.37q4.63,0,4.64-2.45a2,2,0,0,0-.68-1.53,13.74,13.74,0,0,0-3.54-1.83q-5.1-2.1-6.65-3.58a7.2,7.2,0,0,1,.92-10.77,13,13,0,0,1,7.52-2,42.65,42.65,0,0,1,7.4.94v4.91A18.28,18.28,0,0,0,18.74,68c-2.9,0-4.34.79-4.34,2.39a1.7,1.7,0,0,0,.87,1.46c.49.3,1.83,1,4,1.93a23.2,23.2,0,0,1,6.3,3.66,6.42,6.42,0,0,1,1.86,4.76,7.06,7.06,0,0,1-3.65,6.41,14.59,14.59,0,0,1-7.67,1.79,35,35,0,0,1-8-.94Z"/><polygon class="cls-3" points="31.55 64.01 31.55 64.01 38.85 64.01 38.85 89.82 31.55 89.82 31.55 64.01"/><polygon class="cls-3" points="45.47 89.82 45.47 64.01 63.98 64.01 63.98 68.76 52.43 68.76 52.43 74.54 62.45 74.54 62.45 78.78 52.43 78.78 52.43 84.9 64.32 84.9 64.32 89.82 45.47 89.82"/><polygon class="cls-3" points="69.07 89.82 69.07 64.01 78.43 64.01 84.93 80.5 91.6 64.01 100.49 64.01 100.49 89.82 93.53 89.82 93.53 71.58 86.01 90.16 81.53 90.16 74 71.58 74 89.82 69.07 89.82"/><polygon class="cls-3" points="107.11 89.82 107.11 64.01 125.62 64.01 125.62 68.76 114.07 68.76 114.07 74.54 124.09 74.54 124.09 78.78 114.07 78.78 114.07 84.9 125.96 84.9 125.96 89.82 107.11 89.82"/><polygon class="cls-3" points="130.72 89.82 130.72 64.01 138.97 64.01 147.87 81.29 147.87 64.01 152.96 64.01 152.96 89.82 144.94 89.82 135.81 72.31 135.81 89.82 130.72 89.82"/><path class="cls-3" d="M158.05,89.47v-5.1a26.08,26.08,0,0,0,7.72,1.37q4.64,0,4.63-2.45a2,2,0,0,0-.66-1.53,13.68,13.68,0,0,0-3.55-1.83q-5.08-2.09-6.65-3.58a7.19,7.19,0,0,1,.91-10.77,13,13,0,0,1,7.53-2,36.33,36.33,0,0,1,6.76.83l.64.11v4.91A18.38,18.38,0,0,0,168.67,68c-2.89,0-4.33.79-4.33,2.39a1.7,1.7,0,0,0,.87,1.46c.47.29,1.81.94,4,1.93a23.07,23.07,0,0,1,6.28,3.66,6.42,6.42,0,0,1,1.86,4.76,7.06,7.06,0,0,1-3.63,6.41,14.69,14.69,0,0,1-7.69,1.79,35.11,35.11,0,0,1-8-.94Z"/></g></g></g></svg>