<?xml version="1.0" encoding="utf-8"?>
<!-- Generator: Adobe Illustrator 22.1.0, SVG Export Plug-In . SVG Version: 6.00 Build 0)  -->
<svg version="1.1" xmlns="http://www.w3.org/2000/svg" xmlns:xlink="http://www.w3.org/1999/xlink" x="0px" y="0px"
	 viewBox="0 0 87.4 32.2" style="enable-background:new 0 0 87.4 32.2;" xml:space="preserve">
<style type="text/css">
	.st0{fill:#FF0000;}
	.st1{font-family:'TwCenMT-Regular';}
	.st2{font-size:27.5716px;}
	.st3{fill:none;stroke:#000000;stroke-width:3;}
	.st4{fill:none;stroke:#000000;}
	.st5{font-size:9.1905px;}
</style>
<g id="Layer_1">
</g>
<g id="Layer_2">
	<g>
		<text transform="matrix(1.1011 0 0 1 0 23.0391)" class="st0 st1 st2">G</text>
		<g>
			<text transform="matrix(1.1011 0 0 1 20.0391 22.8496)" class="st0 st1 st2">e</text>
		</g>
		<text transform="matrix(1.1011 0 0 1 45.6514 23.1812)" class="st0 st1 st2">t</text>
		<text transform="matrix(1.1011 0 0 1 63.8037 22.8975)" class="st0 st1 st2">c</text>
		<text transform="matrix(1.1011 0 0 1 74.1411 22.3604)" class="st0 st1 st2">h</text>
		<ellipse transform="matrix(0.1021 -0.9948 0.9948 0.1021 19.2117 56.4054)" class="st3" cx="40.9" cy="17.6" rx="5" ry="5.7"/>
		<g transform="translate(-227.14 -161.73)">
			<path class="st4" d="M267.7,181.4c0.4-0.8,0.4-2.2,0-3s-1.2-0.8-1.6,0c-0.4,0.8-0.4,2-0.1,2.9"/>
			<path class="st4" d="M269.4,181.4c0.4-0.8,0.4-2.2,0-3s-1.2-0.8-1.6,0c-0.4,0.8-0.4,2-0.1,2.9"/>
			<path class="st4" d="M271.4,179.9c0-1.2-0.5-2.1-1.1-2.1c-0.6,0-1.1,1-1.1,2.1c0,0.5,0.1,1,0.3,1.4"/>
			<path class="st4" d="M264,179.9c0-1.2,0.5-2.1,1.1-2.1c0.6,0,1.1,1,1.1,2.1c0,0.5-0.1,1-0.3,1.4"/>
			<path class="st4" d="M262.7,180h1.4"/>
			<path class="st4" d="M271.3,180h1.4"/>
		</g>
		<g>
			<text transform="matrix(1.1011 0 0 1 51.2412 22.8496)" class="st0 st1 st2">e</text>
		</g>
		<text transform="matrix(1.1011 0 0 1 23.0137 29.686)" class="st1 st5">technologies ltd</text>
	</g>
</g>
</svg>
