<svg xmlns="http://www.w3.org/2000/svg" viewBox="0 0 123.48 117.42"><defs><style>.cls-1{fill:#500302;}</style></defs><title>logoarrow-curve-up-left-dark</title><g id="Layer_2" data-name="Layer 2"><g id="Layer_1-2" data-name="Layer 1"><path class="cls-1" d="M13.48,27.24V84A33.8,33.8,0,0,0,23,107.55a31.64,31.64,0,0,0,45.92,0A33.85,33.85,0,0,0,78.48,84V33.72h0v-.26a13,13,0,0,1,3.68-9.13,12.25,12.25,0,0,1,17.64,0,13,13,0,0,1,3.68,9.13v76.78h20V33.46a33.87,33.87,0,0,0-9.54-23.6A31.66,31.66,0,0,0,68,9.86a33.83,33.83,0,0,0-9.54,23.6V82.34h0V84a13,13,0,0,1-3.68,9.12,12.25,12.25,0,0,1-17.64,0A13,13,0,0,1,33.48,84V27.24H47.56L24.29.37,0,27.24Z"/></g></g></svg>