<svg xmlns="http://www.w3.org/2000/svg" viewBox="0 0 122.64 101.11"><defs><style>.cls-1{fill:#f9f9f9;fill-rule:evenodd;}</style></defs><title>construction-excavator-white</title><g id="Layer_2" data-name="Layer 2"><g id="Layer_1-2" data-name="Layer 1"><path class="cls-1" d="M115.15,56.45l-.07,2.6-25,7.27-1.46-3.2c-.81-1.66-4.09-.71-3.37,1.76A44.4,44.4,0,0,0,89.39,74c8.37,15.42,37.85,10.55,30-13.36V56.05a6.91,6.91,0,0,0,3.25-5.8,6.06,6.06,0,0,0-6.32-6.14h-.24l2.73-1.34-12.2-31.65C102.82-.66,98.76-2.21,92.18,2.41l-34.57,33-.84-1.25h-7.2a4.19,4.19,0,0,0-4.18,4.18V54.11l-12,1V53.9a2.67,2.67,0,0,0-2.62-2.79H15.5a3.54,3.54,0,0,0-3.11,2.79v1.21H8.62a5.24,5.24,0,0,0-5.23,5.23v6.53a5.25,5.25,0,0,0,5.24,5.24H64.15a5.25,5.25,0,0,0,5.24-5.24V46.79l-2.21-1.85,28-29.54,14.18,31.39L112,45.68a6.32,6.32,0,0,0,3.2,10.77ZM13.5,74.11H58.68a13.54,13.54,0,0,1,13.5,13.5h0a13.54,13.54,0,0,1-13.5,13.5H13.5A13.55,13.55,0,0,1,0,87.6H0A13.53,13.53,0,0,1,13.5,74.11Zm3.71,12c.16,0,.28.52.28,1.2s-.13,1.23-.28.8h-.82v1.52a3.27,3.27,0,0,1-1.5.28c-.68,0-1.23-.13-.5-.28V88.11H12.57c-.16.43-.28-.12-.28-.8s.13-1.23.28-1.2h1.82V85c-.73-.16-.18-.28.5-.28a3.41,3.41,0,0,1,1.5.28v1.12ZM56.39,85c-.21-.16.34-.28,1-.28s1.23.13,1,.28v1.13h1.34c.16,0,.28.51.28,1.19s-.13,1.23-.28.81H58.39v1.51c.25.16-.3.28-1,.28s-1.23-.13-1-.28V88.11h-1.3c-.16.42-.28-.13-.28-.81s.13-1.23.28-1.19h1.3V85Zm1-7.62a9.94,9.94,0,1,1-9.94,9.94,9.94,9.94,0,0,1,9.94-9.94Zm-42.52,0A9.94,9.94,0,1,1,5,87.3a9.94,9.94,0,0,1,9.94-9.94ZM96.77,5.3a3.5,3.5,0,1,1-3.5,3.5,3.5,3.5,0,0,1,3.5-3.5Z"/></g></g></svg>