<svg xmlns="http://www.w3.org/2000/svg" viewBox="0 0 122.64 100.32"><defs><style>.cls-1{fill:#500302;fill-rule:evenodd;}</style></defs><title>logoconstruction-excavator-dark</title><g id="Layer_2" data-name="Layer 2"><g id="Layer_1-2" data-name="Layer 1"><path class="cls-1" d="M115.15,56.45l-.07,2.6-25,7.27-1.46-3.2c-.81-1.66-4.09-.71-3.37,1.76A44.4,44.4,0,0,0,89.39,74c8.37,15.42,37.85,10.55,29.92-13.36V56.05a6.8,6.8,0,0,0,3.33-5.8,7.33,7.33,0,0,0-6.32-6.93h-.24l2.73-.55-12.2-31.65C102.82-.66,98.76-2.21,92.18,2.41l-34.57,33-.84-1H49.49a4.19,4.19,0,0,0-4.18,4.18V55.32h-12V53.9a2.29,2.29,0,0,0-2.54-2.58H15.5a3.26,3.26,0,0,0-3.19,2.58v1.42H8.51a5.22,5.22,0,0,0-5.2,5.2v5.87a5.11,5.11,0,0,0,5.23,4.93H64.07a5.12,5.12,0,0,0,5.24-4.93V46.79l-2.13-1.85,28-29.54,14.18,31.39L112,45.68a6.32,6.32,0,0,0,3.2,10.77ZM13.5,73.32H58.68a13.54,13.54,0,0,1,13.5,13.5h0a13.54,13.54,0,0,1-13.5,13.5H13.5A13.55,13.55,0,0,1,0,86.81H0A13.53,13.53,0,0,1,13.5,73.32Zm3.71,13c.16-.24.28.31.28,1s-.13,1.23-.28,1h-.9v1.31a2.68,2.68,0,0,1-1.42.28c-.68,0-1.23-.13-.58-.28V88.32H12.57c-.16.22-.28-.33-.28-1s.13-1.23.28-1h1.74V85c-.65-.16-.1-.28.58-.28a2.78,2.78,0,0,1,1.42.28v1.33ZM56.31,85c-.13-.16.42-.28,1.1-.28s1.23.13.9.28v1.34h1.42c.16-.25.28.3.28,1s-.13,1.23-.28,1H58.31v1.3c.33.16-.22.28-.9.28s-1.23-.13-1.1-.28v-1.3H55.09c-.16.21-.28-.34-.28-1s.13-1.23.28-1h1.22V85Zm1.1-7.62a9.94,9.94,0,1,1-9.94,9.94,9.94,9.94,0,0,1,9.94-9.94Zm-42.52,0A9.94,9.94,0,1,1,5,87.3a9.94,9.94,0,0,1,9.94-9.94ZM96.77,5.3a3.5,3.5,0,1,1-3.5,3.5,3.5,3.5,0,0,1,3.5-3.5Z"/></g></g></svg>