<svg xmlns="http://www.w3.org/2000/svg" viewBox="0 0 108.35 123.01"><defs><style>.cls-1{fill:#500302;fill-rule:evenodd;}</style></defs><title>logocontract-dark</title><g id="Layer_2" data-name="Layer 2"><g id="Layer_1-2" data-name="Layer 1"><path class="cls-1" d="M24,31l1.3,15.61a5.13,5.13,0,0,0,.93,2.9A1.93,1.93,0,0,0,27.8,50h5a1.86,1.86,0,0,0,1.59-.6A4,4,0,0,0,35,47V29.84a.66.66,0,0,1,0-.28h0a1.29,1.29,0,0,0-.57-.93,3.94,3.94,0,0,0-2.06-.38c-2.17,0-4.4.06-6.56,0a2.11,2.11,0,0,0-1.54.52A2.75,2.75,0,0,0,24,30.92V31ZM97.41,76l9.8,7.73a3,3,0,0,1,.5,4.21l-4.28,5.45L88.92,81.93l4.29-5.43a3,3,0,0,1,4.21-.5ZM58.8,116a3.36,3.36,0,0,1,3.45,3.3A3.43,3.43,0,0,1,59.16,123a2.16,2.16,0,0,1-.36,0H7.61A7.63,7.63,0,0,1,0,115.39V7.61A7.63,7.63,0,0,1,7.61,0h90.2A7.9,7.9,0,0,1,106,7.58v55c0,3.56-1.64,4.11-3.33,4.22S99,66.39,99,62.6V8.07a1,1,0,0,0-.32-.75A1,1,0,0,0,97.94,7H8.06a1.06,1.06,0,0,0-.75.31A1.1,1.1,0,0,0,7,8.07V114.85a1.13,1.13,0,0,0,.32.81,1,1,0,0,0,.76.34ZM22.51,98a3.51,3.51,0,0,1,0-7H71.9l-4.47,5.76A9,9,0,0,0,66.55,98Zm2.55-18a3.53,3.53,0,0,1,0-7H78.53a3.4,3.4,0,0,1,3.26,3.51v.2a9.62,9.62,0,0,0-.61,1.08,8.18,8.18,0,0,0-1.25,1.44l-.46.62a3.08,3.08,0,0,1-.94.15Zm62.26,34c-3.39,1.5-6.11,2.24-9.49,3.74-7.2,2.48-7,4.15-6.4-3l1.4-12.18h0l13.94-18L101.28,96,87.34,114ZM75,104.25l9.53,7.52-6.67,3c-5.22,2.31-5.06,3.42-4.21-2l1.35-8.5Zm-2.55-77a2.13,2.13,0,0,1,.26-.26,4.44,4.44,0,0,1,3.07-1h6a5.93,5.93,0,0,1,3.66.95,3.55,3.55,0,0,1,1.22,3.5L85,47.28a5.89,5.89,0,0,1-1.22,3.49A3.76,3.76,0,0,1,80.64,52h-5a3.52,3.52,0,0,1-2.4-.73,4.23,4.23,0,0,1-1-1.27h-2a7.93,7.93,0,0,1-.06,2.3,4.5,4.5,0,0,1-1.45,2.06,5.13,5.13,0,0,1-2.26,1,4.41,4.41,0,0,1-2.25-.2,6.14,6.14,0,0,1-2.68,1.65,5,5,0,0,1-2.85-.07,6.09,6.09,0,0,1-3.07,1.84A5.78,5.78,0,0,1,52,58.1a5.52,5.52,0,0,1-1.18.67,5.06,5.06,0,0,1-2.06.38,5.59,5.59,0,0,1-3.77-1.38,10.81,10.81,0,0,1-2.08-2.86L39.37,49H37a9.79,9.79,0,0,1-.87,1.72A3.35,3.35,0,0,1,32.72,52H28a3.28,3.28,0,0,1-3.21-1A16.27,16.27,0,0,1,23,46.81v-.1L22,31.18a4.72,4.72,0,0,1,.76-3.89A4.1,4.1,0,0,1,25.91,26h6.46a5.64,5.64,0,0,1,3.21.74A7.82,7.82,0,0,1,37,28H42a14.91,14.91,0,0,1,3.87-2,10.49,10.49,0,0,1,4.38-.48l1.67-2,.09-.09a6.8,6.8,0,0,1,1.71-1.21,8.34,8.34,0,0,1,2.05-.78,12.66,12.66,0,0,1,3.47-.39,15.93,15.93,0,0,1,3.7.5h0a18.54,18.54,0,0,1,5.62,3l1.27.88,2.52,1.69ZM49.74,56l-2.28-4.31a1.11,1.11,0,0,1,.44-1.5,1.13,1.13,0,0,1,1.51.46L52,55.5a3.64,3.64,0,0,0,2.38.4,3.58,3.58,0,0,0,1.75-1l-3.66-5.74a1.11,1.11,0,0,1,1.88-1.18l3.88,6.16a2.64,2.64,0,0,0,1.73.12,3.61,3.61,0,0,0,1.55-1L58,46.67a1.11,1.11,0,1,1,1.86-1.2,1.09,1.09,0,0,1,.08.15l3.69,6.94a2.18,2.18,0,0,0,1.33.19,2.45,2.45,0,0,0,1.15-.51,1.94,1.94,0,0,0,.68-1,2,2,0,0,0-.1-1.4,1,1,0,0,1-.09-.33,1.14,1.14,0,0,1-.38-.46L58,34.24c-.78-1.33-1.47-1.38-2.12-1a11.92,11.92,0,0,0-1.7,1.38c-.34.32-.69.63-1,.91l-1.46,1.21a6.36,6.36,0,0,1-3.38,1.38,5.12,5.12,0,0,1-2.16-.29,4.08,4.08,0,0,1-2.69-3.6,1.14,1.14,0,0,1,.33-.88l4-4.75a8.08,8.08,0,0,0-1.83.33,13.38,13.38,0,0,0-3.43,1.8,1.07,1.07,0,0,1-.69.24H37V46h2.84a1.15,1.15,0,0,1,1,.63l3.84,6.69a9.58,9.58,0,0,0,1.62,2.32,3.46,3.46,0,0,0,2.33.8,2.6,2.6,0,0,0,1.14-.21,2.82,2.82,0,0,0,.46-.23ZM71,48l.16-18-2.84-1.89L67,27.24a16.79,16.79,0,0,0-5-2.73h0a13.69,13.69,0,0,0-3.18-.44,11,11,0,0,0-2.91.31,7.38,7.38,0,0,0-1.58.61,5.41,5.41,0,0,0-1.19.83l-1.88,2.23a1.05,1.05,0,0,1-.29.34l-5.21,6.15A1.85,1.85,0,0,0,47,35.89a2.91,2.91,0,0,0,1.24.15,4.33,4.33,0,0,0,2.25-.93l1.47-1.22c.34-.27.66-.57,1-.86a14.49,14.49,0,0,1,2.12-1.7c1.81-1.09,3.59-1.09,5.34,1.81L68.64,48ZM30.83,43a1.46,1.46,0,1,1-1.46,1.46h0A1.45,1.45,0,0,1,30.81,43Zm46.62,0A1.46,1.46,0,1,1,76,44.47v0A1.45,1.45,0,0,1,77.45,43Z"/></g></g></svg>