<svg xmlns="http://www.w3.org/2000/svg" viewBox="0 0 406 511.8"><defs><style>.cls-1{fill:#500302;}</style></defs><title>logoAsset 7</title><g id="Layer_2" data-name="Layer 2"><g id="Layer_1-2" data-name="Layer 1"><path class="cls-1" d="M391.09,313.35a7.32,7.32,0,0,1-5.58,7.27c-4.22,1.4-8.85,3.49-13.25,3.6a7.35,7.35,0,0,1-7.22-5.36l-7.23-20.55c-1.16-3.31-2.3-6.55-3.42-9.86l-13.75,26c-1.51,2.82-7.33,5.95-9.76,7.57a7.34,7.34,0,0,1-10.17-2,7.11,7.11,0,0,1-1.1-2.73l-8.12-40.54-11.13-7.55-25.84-4c.91,1.37,1.84,2.74,2.75,4.08,4.74,7,9.16,13.5,10.73,20.28,2.52,10.9-1.38,20.14-19.47,27.07a15.72,15.72,0,0,1,1.58,1c7.22,5.28,9.1,13.26-5.95,33.83q-5.71,7.78-9.82,13.76c-2.15,3.14-4.16,6.15-6,9.05l4,25.28a13.79,13.79,0,0,1-2.34,10c-3.39,5.12-8.32,7.13-12.5,11.24-.57.57-1.1,1.14-1.57,1.69l1.75,7.21a7.3,7.3,0,0,1-2.17,7.13,18,18,0,0,1-4.52,2.47,31.42,31.42,0,0,1-2.15,6.17c-3.21,6.89-9.28,13.82-16.14,17.2-7.63,3.77-16.36,3-24.72,3.16a7.34,7.34,0,0,1-7.49-7.18A50.44,50.44,0,0,0,179.08,448c-2.09-8.88-6.27-16.85-8.66-25.7-2.11-7.81-3.28-18.38,1.35-25.49.68-1,.71-6.29.69-7.54-.11-4.67-2.21-9.33-4.57-13.27-2.14-3.56-6.46-10.5-6.54-14.59-.26-12-4.42-14.52-10.12-14.4-8.74.18-17.5,2.82-26.53,3-3.85.08-7.68-1.6-11.46-5-5.69-5.14-11.36-14.61-15-21.46-3.24-6-3-7.34-3.13-14-.63-20.35-1.21-39.59,18.12-54.19C121.08,243.66,128.25,236,137,231c9.07-5.18,19.25-7.13,33.06-7.42a7.34,7.34,0,0,1,7.49,7.18l.22,10.4,8.88,3.66.12-.6c1.61-8.46,10.74-5.7,16.08-3.88,6.43,2.17,10,5.86,17.63,4.2,2.9-.64,2.26-1.43,2.56-4.38l-8.7,1a7.33,7.33,0,0,1-5.76-1.92c-1.3-1.21-1.81-2.73-2.81-4.15-3.28-4.66-8.84-7.35-15.6-10.62-8.29-4-18-8.73-28.63-18.4-34.8,13.18-46,15.13-48.94,7.36-1.75-4.54.55-8.26,3.64-13.27,2.78-4.52,6.75-10.94,6.62-16.89a7.33,7.33,0,0,1,4.74-7l29.22-14.11c-7,0-9.64-12-10.75-16.92-1.56-6.88,7-9.93,11.58-13.15q4.65-3.3,11.12-8.46l.27-.22A188.14,188.14,0,0,0,17.59,274.8a197.41,197.41,0,0,0,1.6,75.77c.15.66.3,1.32.46,2l34.27,15.51c3.17,1.43,4.28,4.19,4.34,7.36.32,9.13-2,16.08-4.42,23.21-1.86,5.51-3.76,11.15-4,17.74a6.92,6.92,0,0,1-.32,2,186,186,0,0,0,51.15,48.81,188.59,188.59,0,0,0,68.3,27,196.42,196.42,0,0,0,75.78-1.61,188.47,188.47,0,0,0,67.1-29.88,186.25,186.25,0,0,0,49.5-51.64,188.59,188.59,0,0,0,27-68.3A192.86,192.86,0,0,0,391.27,305c-.13,2.75-.24,5.61-.18,8.38ZM296.75,49.74a38.93,38.93,0,1,1-38.93,38.94A38.93,38.93,0,0,1,296.75,49.74Zm45,146.36a161.09,161.09,0,0,1-34.3,28.5,14.2,14.2,0,0,1-16,.58,195.73,195.73,0,0,1-48.11-43c-17.7-22.2-28.87-47-32.73-70.91-4-24.93-.17-49,12.38-68.8a86.54,86.54,0,0,1,19.19-21.24C259.74,7.24,280-.16,300.29,0c19.72.16,39.16,7.45,55.86,22.68a82.61,82.61,0,0,1,14.9,18.21c13.4,22.1,16.4,50,10.61,78.08C376.06,146.13,362.22,173.67,341.76,196.1ZM299,213.2c68.21-41.36,94.53-137.2,47.58-180C318,7.05,280.48,8.84,251,32.36,199.21,73.59,222.41,164.53,299,213.2Zm70.77-20.43a203.48,203.48,0,0,1,31.34,71,211.69,211.69,0,0,1,1.72,81.5,203.21,203.21,0,0,1-29.13,73.63,200.58,200.58,0,0,1-53.43,55.74A203.45,203.45,0,0,1,248,506.91a210.91,210.91,0,0,1-81.5,1.73A203.16,203.16,0,0,1,92.83,479.5a200.45,200.45,0,0,1-55.74-53.43A203.25,203.25,0,0,1,4.87,353.74a211.74,211.74,0,0,1-1.72-81.51C12.36,220.54,42.74,173,85.7,142.87a201.11,201.11,0,0,1,104.37-36.69c.19,1.52.41,3,.66,4.57.83,5.17,2,10.38,3.33,15.59-3.16.06-3.3.07-6.27,1.74a78.8,78.8,0,0,0-9.95,7q-6.41,5.08-11.8,8.92c-2.1,1.49-4,2.78-5.77,3.89,2.73.58,5,2,6.88,10.24,1.21,5.23,3.75,13.44-2.53,16.47l-27.46,13.25c-1.18,8.07-5.42,15-8.55,20a1.07,1.07,0,0,1-.22.25c3.47-2.19,11.78-9.46,31.76-17.18a7.36,7.36,0,0,1,8.25,1.5c10.09,10.12,19.89,14.86,28.08,18.83,8.58,4.15,15.69,7.59,20.87,14.85l11.82-1.31a7.34,7.34,0,0,1,8.8,7c.11,5.19,0,14.85-2.92,19.55-2.53,4.11-6.71,6.46-11.46,7.5-10.08,2.24-15.21-.44-24-4.09-.35,1.87-.52,3.24-1.8,4.83a7.33,7.33,0,0,1-8.49,2.18l-21.11-8.71a7.36,7.36,0,0,1-5.07-6.83l-.16-7.61c-7.7.66-13.69,2.19-18.83,5.12-6.7,3.82-12.54,10.28-19.33,20.51a7.27,7.27,0,0,1-2,2.21c-14.12,10.14-13.64,25.94-13.13,42.68.1,3.38.17,4.72.19,5.74,0,.34.39.23,1.2,1.72,2.79,5.21,7.7,13.65,12,17.52l1.35,1.2c8.92-.19,17.66-2.81,26.53-3,14.23-.29,24.58,4.77,25.09,28.77,0,0,4.3,7.17,4.45,7.41,5.51,9.22,7.88,18.25,6.17,28.95-1.56,9.64-5.35,8.93-2.07,21,2.43,9,6.6,16.92,8.79,26.16q.75,3.19,1.2,6.23c3.83-.08,8.23.28,11.71-1.44,5.16-2.56,10.34-9.81,10.84-15.61.16-3.38,2.1-5.31,5-6.66-.83-3.38-2.28-6.84-.27-10.13a43.35,43.35,0,0,1,12.79-12.8,13.54,13.54,0,0,0,3.07-2.67c.21-.35.21,0,.13-.55l-4.29-26.89a7.3,7.3,0,0,1,.94-5.45q3.08-4.92,7.84-11.86,4.64-6.72,10-14.11c7.91-10.81,9.39-13.19,9.15-13.37a16.57,16.57,0,0,0-3-1.34c-3.93-1.51-8.16-3.16-11.14-7.26-3.35-4.66-4.64-12.32,2.93-14.07,19.8-4.58,24.62-9.1,23.49-14-1-4.13-4.63-9.54-8.56-15.33s-8.05-11.88-10.88-18.58a7.32,7.32,0,0,1,7.64-10.55l39.67,6.21c2,.31,3.83.46,5.53,1.61l14.5,9.81a7.35,7.35,0,0,1,3.67,5l6,29.91,17.87-33.77a7.34,7.34,0,0,1,13.66.58c4.53,13.31,9,26.44,13.7,39.69.16-4,.46-9.3,1-14.56A86.77,86.77,0,0,1,380.18,278a22.13,22.13,0,0,1,3.65-7.53A173.61,173.61,0,0,0,378.91,250a168.13,168.13,0,0,0-9.16-23.62A190.18,190.18,0,0,0,359.11,207q5.67-6.9,10.68-14.22Zm-330.74,204c.3-.94.61-1.87.93-2.8,1.61-4.76,3.18-9.43,3.58-14.58l-15.56-7A173.72,173.72,0,0,0,39.05,396.78Z"/></g></g></svg>