<svg xmlns="http://www.w3.org/2000/svg" viewBox="0 0 102.47 66.34"><defs><style>.cls-1{fill:#500302;}</style></defs><title>good-quality-thumbs-up-dark</title><g id="Layer_2" data-name="Layer 2"><g id="Layer_1-2" data-name="Layer 1"><path class="cls-1" d="M76.73,2A3,3,0,0,1,78.21.41,3.29,3.29,0,0,1,80.58.28a6.49,6.49,0,0,1,2.28,1.2A11.9,11.9,0,0,1,87,9.86,25.81,25.81,0,0,1,87,13.59c-.07.85-.17,1.78-.32,2.74H95.3a8.89,8.89,0,0,1,3.89,1,6.38,6.38,0,0,1,2.4,2.19,5.71,5.71,0,0,1,.87,3.35,8.24,8.24,0,0,1-.82,3.09,10,10,0,0,1,.23,3.74,4.42,4.42,0,0,1-1.19,2.55,11.6,11.6,0,0,1-.58,4.22,8.77,8.77,0,0,1-1.91,3.15,13,13,0,0,1-.38,2.23,7.82,7.82,0,0,1-1.08,2.41h0c-1.46,2.16-2.64,2.1-4.5,2H74.43a7.88,7.88,0,0,1-3.75-.83,9.15,9.15,0,0,1-3-2.7l-.29-.75V21.62l.81-.24c2.17-.61,3.88-2.56,5.21-4.86a34.89,34.89,0,0,0,3-7.42V3.77a3.57,3.57,0,0,1,.27-1.71Zm-52.14-.9a33.22,33.22,0,0,1,35.19,12.2H54.42A29.07,29.07,0,0,0,8.08,18.54L8,18.65A29.06,29.06,0,0,0,18.55,58.27l.11.06a29.08,29.08,0,0,0,36.33-6h5.25a33.14,33.14,0,0,1-43.65,9.56l-.12-.07a33.14,33.14,0,0,1-12-45.23l.07-.12A33.08,33.08,0,0,1,24.59,1.13ZM15.78,15.75,19.37,17l3-2.28-.05,3.79,3.1,2.19-3.62,1.13-1.13,3.62-2.19-3.1-3.79.05,2.27-3ZM8.41,33l3.4-1.67.54-3.76L15,30.31l3.74-.64L17,33l1.77,3.36L15,35.7l-2.64,2.72-.54-3.76L8.41,33ZM15.83,51l1.22-3.59-2.27-3,3.79.05,2.18-3.1,1.13,3.63L25.5,46l-3.09,2.19L22.46,52l-3-2.27Zm17.38,6.56-1.68-3.4-3.75-.54,2.72-2.64-.65-3.75L33.21,49l3.35-1.77L35.88,51,38.6,53.6l-3.72.56L33.2,57.55Zm0-49,1.68,3.4,3.75.54-2.72,2.65.64,3.74L33.21,17,29.85,18.8l.65-3.74-2.72-2.65,3.75-.54ZM57.15,27.68a1.86,1.86,0,1,0-1.85-1.85h0A1.85,1.85,0,0,0,57.15,27.68ZM45.33,19.33H62.64a1.77,1.77,0,0,1,1.77,1.76V44.56a1.78,1.78,0,0,1-1.77,1.77H41.57a1.77,1.77,0,0,1-1.76-1.77c1.92-7.82,1.84-15.64,3.76-23.47A1.76,1.76,0,0,1,45.33,19.33Zm33.52-17a.9.9,0,0,0-.44.69V9.23l0,.33a36.8,36.8,0,0,1-3.26,8,12.25,12.25,0,0,1-5.69,5.57v18a6.13,6.13,0,0,0,1.94,1.68,5.85,5.85,0,0,0,2.76.53H92.24c1.13,0,1.84.07,2.59-1h0a5.14,5.14,0,0,0,.75-1.69,10.18,10.18,0,0,0,.34-2.2l.37-.77A6.86,6.86,0,0,0,98,35.11a9.6,9.6,0,0,0,.45-3.84v-.71l.59-.37a1.81,1.81,0,0,0,.71-1.32,7.64,7.64,0,0,0-.3-3.15l.1-.85a6.11,6.11,0,0,0,.74-2.47,3.32,3.32,0,0,0-.52-1.94,4.22,4.22,0,0,0-1.56-1.38,6.89,6.89,0,0,0-2.94-.75H83.66l.26-1.41c.25-1.36.43-2.66.54-3.89a22.42,22.42,0,0,0,.05-3.38A9.21,9.21,0,0,0,81.18,3a4.41,4.41,0,0,0-1.48-.79,1.19,1.19,0,0,0-.83,0Z"/></g></g></svg>