<svg xmlns="http://www.w3.org/2000/svg" viewBox="0 0 123.98 73.44"><defs><style>.cls-1{fill:#500302;}</style></defs><title>logoAsset 8</title><g id="Layer_2" data-name="Layer 2"><g id="Layer_1-2" data-name="Layer 1"><path class="cls-1" d="M92.59,8.93a3.55,3.55,0,0,1,1.8-1.84,4.41,4.41,0,0,1,2.91-.16,8.1,8.1,0,0,1,2.77,1.38,13.15,13.15,0,0,1,5.1,9.54,29.87,29.87,0,0,1-.06,4.23c-.08,1-.22,2-.4,3.11h10.55A11.69,11.69,0,0,1,120,26.37a7.51,7.51,0,0,1,2.92,2.49,6.2,6.2,0,0,1,1,3.8,8.79,8.79,0,0,1-1,3.51,10.89,10.89,0,0,1,.28,4.25,4.91,4.91,0,0,1-1.46,2.87,12.31,12.31,0,0,1-.72,4.77,10.1,10.1,0,0,1-2.35,3.56,13.69,13.69,0,0,1-.47,2.54A8.6,8.6,0,0,1,117,56.89h0c-1.79,2.45-3.22,2.39-5.48,2.3H89.78a10.18,10.18,0,0,1-4.62-.9,11,11,0,0,1-3.62-3.06l-.31-.85V31.14l1-.27C84.9,30.18,87,28,88.61,25.35a38.22,38.22,0,0,0,3.62-8.42v-6a3.66,3.66,0,0,1,.34-2ZM27.23,1.26A36.59,36.59,0,0,1,55.06,4.92l.12.08A36.61,36.61,0,0,1,69.7,20.64,9.35,9.35,0,0,0,65.86,22,32.29,32.29,0,0,0,53.12,8.51L53,8.45a32.6,32.6,0,1,0-8,59.74h.21a32.35,32.35,0,0,0,12.34-6.42,9.48,9.48,0,0,0,1.28,2.14,7.06,7.06,0,0,0,.76.88l.32.31a36.45,36.45,0,0,1-13.75,7.09h-.06A36.68,36.68,0,1,1,27.23,1.31ZM18.68,42.5a22.5,22.5,0,0,0,5,4.69,23.87,23.87,0,0,0,13.9,4.19A22.52,22.52,0,0,0,51,46.86a20,20,0,0,0,4.18-4.38.11.11,0,0,1,.17,0h0l1.36,1.32a.11.11,0,0,1,0,.15,25.37,25.37,0,0,1-7.84,8.45A21.15,21.15,0,0,1,37.68,56a21.83,21.83,0,0,1-11.52-3.09,28.18,28.18,0,0,1-9-8.82.15.15,0,0,1,0-.16l1.4-1.39a.13.13,0,0,1,.18,0ZM45.62,21.06c2.4,0,4.34,2.81,4.34,6.28S48,33.61,45.62,33.61s-4.33-2.81-4.33-6.27S43.23,21.06,45.62,21.06Zm-17.44,0c2.4,0,4.34,2.81,4.34,6.28s-1.94,6.27-4.34,6.27-4.33-2.81-4.33-6.27S25.79,21.06,28.18,21.06Zm41.93,7.13h6a2.11,2.11,0,0,1,2.11,2.09h0V58.1a2.1,2.1,0,0,1-2.1,2.09H65.62a2.1,2.1,0,0,1-2.09-2.09c1.81-9.66,3-18.54,4.46-27.82a2.1,2.1,0,0,1,2.09-2.09Zm25.64-19a1.11,1.11,0,0,0-.52.82v7l-.06.4a44,44,0,0,1-4,9.57c-1.75,2.95-4.08,5.48-7,6.65V54.57a7.8,7.8,0,0,0,2.31,2,7.11,7.11,0,0,0,3.28.61h21.24c1.31,0,2.14.09,3-1.17h0a6,6,0,0,0,.86-1.92,12.91,12.91,0,0,0,.41-2.55l.41-.91a7.64,7.64,0,0,0,2-3,11,11,0,0,0,.53-4.44v-.82l.68-.44a2.1,2.1,0,0,0,.84-1.53,9.24,9.24,0,0,0-.35-3.66l.11-1a7.28,7.28,0,0,0,.85-2.88,3.88,3.88,0,0,0-.59-2.25,4.94,4.94,0,0,0-1.83-1.6,8,8,0,0,0-3.4-.88h-13l.31-1.65c.3-1.61.51-3.15.64-4.6a26.31,26.31,0,0,0,.06-4,10.85,10.85,0,0,0-4-7.83,5.14,5.14,0,0,0-1.77-1,1.62,1.62,0,0,0-1,0Z"/></g></g></svg>