<svg xmlns="http://www.w3.org/2000/svg" viewBox="0 0 497 511.52"><defs><style>.cls-1{fill:#500302;}</style></defs><title>logoAsset 14</title><g id="Layer_2" data-name="Layer 2"><g id="Layer_1-2" data-name="Layer 1"><path class="cls-1" d="M300.56,479.73a71.08,71.08,0,0,1-27.16,24.39c-18.88,9.69-41.39,10.11-60.11-.19A62.25,62.25,0,0,1,196,489.54l104.54-9.81Zm-.19-302.84a29.39,29.39,0,0,1,10,1.61,38.83,38.83,0,0,1,16.89,11.73,37.66,37.66,0,0,1,8.83,20.16,35.45,35.45,0,0,1-.58,11.23A42.81,42.81,0,0,1,344.14,232,34.24,34.24,0,0,1,349,250.32a33,33,0,0,1-6.68,18.8,45.92,45.92,0,0,1-11.22,10.56,41.68,41.68,0,0,1-7.19,25.75c-5.33,7.72-13.07,12.95-21.07,14.36a31.1,31.1,0,0,1-12.31,17.49c-7.45,5.34-17.19,7.84-26.06,5.41-6.62-1.82-12.65-6.23-16.75-14.05-5,8.58-11.9,13.11-19.13,14.61-8.59,1.78-17.48-.85-24.17-6.05a29.35,29.35,0,0,1-10.89-17.06,29.61,29.61,0,0,1-8.48-1.6,38.77,38.77,0,0,1-16.56-11.36,37.85,37.85,0,0,1-9-19.45,35.35,35.35,0,0,1,.44-12.3,41.87,41.87,0,0,1-7.8-9.26,34.72,34.72,0,0,1-5.34-18.67,33.36,33.36,0,0,1,6.76-19.59,46.68,46.68,0,0,1,10.84-10.42c-.07-1.3-.07-2.58,0-3.84a41.24,41.24,0,0,1,9.14-24.58c5.37-6.58,12.6-10.92,20-11.95h0a28.19,28.19,0,0,1,1.05-3.58A30.76,30.76,0,0,1,208,157.94a29.25,29.25,0,0,1,20.56-3.63c6.88,1.43,13.47,5.6,18.4,13.41,4.93-7.81,11.52-12,18.4-13.41A29,29,0,0,1,284.28,157,31.54,31.54,0,0,1,297.75,170a27.48,27.48,0,0,1,2.62,6.92Zm-46.29,4.05V309.69a6.2,6.2,0,0,1,1.17,2.74c1.85,11.23,6.73,16.65,12.22,18.16,5.06,1.38,10.89-.24,15.53-3.57s7.81-8.06,7.85-13.09c0-5.72-4.14-12.21-15.36-17.94a6.26,6.26,0,0,1-1.06-10.42,6.07,6.07,0,0,1,6.69-.67l0,0c12.44,6.36,18.89,14.18,21.16,22a21.92,21.92,0,0,0,11.09-8.71,29.61,29.61,0,0,0,4.79-20.6,6.25,6.25,0,0,1,3-6.72,35.65,35.65,0,0,0,10.9-9.33,20.71,20.71,0,0,0,4.26-11.73,22.08,22.08,0,0,0-3.21-11.72,31.55,31.55,0,0,0-8.35-9.19,6.24,6.24,0,0,1-2.44-7.18,23.53,23.53,0,0,0,1.17-10.18,25.22,25.22,0,0,0-6-13.44,26.34,26.34,0,0,0-11.38-8,16.49,16.49,0,0,0-6.38-.93,30.31,30.31,0,0,1-6.08,11,6.21,6.21,0,0,1-9.51-8c4.85-5.75,4.88-11.8,2.34-16.54A19,19,0,0,0,278.4,168a16.61,16.61,0,0,0-10.74-1.65c-5.27,1.1-10.36,5.46-13.58,14.56Zm32,42.21a6.21,6.21,0,1,1,7.31-10.05A44.82,44.82,0,0,1,297,216a41.19,41.19,0,0,1,13.65,27.53,43.77,43.77,0,0,1-8.36,29.29,42.91,42.91,0,0,1-3.06,3.75,6.21,6.21,0,0,1-9.21-8.33h0c.71-.8,1.45-1.71,2.18-2.72a31.52,31.52,0,0,0,6-21,28.93,28.93,0,0,0-9.54-19.24A28.08,28.08,0,0,0,286.11,223.15Zm-44-35.71-.26-.05,0-.06-.11-.18v0l-.25-.47,0,0h0l0-.06-.09-.21,0-.05-.15-.06v0l.1,0-.08-.2v-.07l0-.11v0l0-.06v-.08l0-.06v-.06h0l0-.08v0c-3-12.13-8.83-17.69-14.88-19a16.84,16.84,0,0,0-11.78,2.21,18.1,18.1,0,0,0-8,9.12c-1.85,5-.76,11.17,5.49,16.95a6.21,6.21,0,0,1-8.44,9.12A31.9,31.9,0,0,1,194,189.56a20.53,20.53,0,0,0-10.89,7.28A28.56,28.56,0,0,0,176.78,214a32.55,32.55,0,0,0,.3,5.67,6.24,6.24,0,0,1-2.89,6.14,37,37,0,0,0-10.61,9.38,21.22,21.22,0,0,0-4.37,12.37,22.51,22.51,0,0,0,3.53,12,30.43,30.43,0,0,0,7.79,8.38,6.22,6.22,0,0,1,2.36,7.13,23.5,23.5,0,0,0-1.07,10.88,25.42,25.42,0,0,0,6.08,13,26.14,26.14,0,0,0,11.15,7.7,17.32,17.32,0,0,0,5.08,1c2.44-8.07,9.14-16.15,21.91-22.68A6.22,6.22,0,1,1,221.7,296c-11.81,6-16.25,13-16.24,19.05,0,4.71,2.69,9.15,6.62,12.2s9.15,4.71,14,3.71c6.06-1.26,11.9-6.84,14.89-19a4,4,0,0,1,1.14-2V187.44Zm-46.47,29.84a6.22,6.22,0,1,1,8.73,8.87,28.9,28.9,0,0,0-8.67,19.54,31.66,31.66,0,0,0,7.11,21.14,6.22,6.22,0,0,1-9.7,7.8,44.08,44.08,0,0,1-9.84-29.44A41.25,41.25,0,0,1,195.61,217.28ZM147.06,357.41c-5.61-7.17-11.33-14.49-16.86-22.89a165.5,165.5,0,0,1-15.41-29.18A170.11,170.11,0,0,1,105.08,272a144.46,144.46,0,0,1-2-34.38v0a145.5,145.5,0,0,1,6.7-35.1,172.13,172.13,0,0,1,16-35.36l.57-.87a142.23,142.23,0,0,1,30.72-33.36,135,135,0,0,1,39.26-21.32l.76-.22a141.6,141.6,0,0,1,33.32-7A152.88,152.88,0,0,1,266,105.43a159.5,159.5,0,0,1,33.74,8.84,156.74,156.74,0,0,1,30.87,16,144.57,144.57,0,0,1,33.2,30.51,131,131,0,0,1,21.09,38.39h0a151.2,151.2,0,0,1,6.22,24.53A140.48,140.48,0,0,1,389,280.31a156.36,156.36,0,0,1-10.43,29.2c-9.56,20.39-25.92,40.64-41.95,60.47-8.32,10.31-16.57,20.52-23.56,30.4a9.44,9.44,0,0,1-10,3.72c-22-1.69-95.08,8.83-122.11,11.34a9.43,9.43,0,0,1-9.95-6.89,183.42,183.42,0,0,0-10.59-28.79,118.48,118.48,0,0,0-13.35-22.35Zm-1.16-32.82c5.06,7.68,10.56,14.73,16,21.64a137.47,137.47,0,0,1,15.57,26,200.41,200.41,0,0,1,9.44,24.16l113.67-10.57c6.55-9,13.89-18,21.31-27.21,15.37-19,31.05-38.43,39.58-56.62a136.55,136.55,0,0,0,9.16-25.66,121.05,121.05,0,0,0,3.51-25.8,123.39,123.39,0,0,0-1.63-23.38A132.9,132.9,0,0,0,367,205.7h0A112.12,112.12,0,0,0,349,172.86a126.24,126.24,0,0,0-28.9-26.51A137.63,137.63,0,0,0,293,132.4a140.26,140.26,0,0,0-29.74-7.8,134.5,134.5,0,0,0-31.26-1,122.7,122.7,0,0,0-28.82,6l-.74.28a116,116,0,0,0-33.79,18.3,123.57,123.57,0,0,0-26.49,28.74l-.13.23a152.89,152.89,0,0,0-14.3,31.43,124.06,124.06,0,0,0-4,60.55,150.51,150.51,0,0,0,8.6,29.6,146.3,146.3,0,0,0,13.63,25.84ZM303,404.12h0ZM257.49,15.4A16.72,16.72,0,0,1,263.33,4c3.19-2.73,11.75-4,11.75-4V.53a8.67,8.67,0,0,1,1.14.15,16.46,16.46,0,0,1,14.22,17.44h.05a6.56,6.56,0,0,1-.09.84l-2.82,35.16H288s-.08.92-.14,1.31a16.68,16.68,0,0,1-5.71,10.46,17,17,0,0,1-12.09,4v0c-.27,0-.65-.08-1-.14a16.7,16.7,0,0,1-14.43-17.63h0a5.47,5.47,0,0,1,.09-.91l2.82-35.81ZM70,67.81a16.92,16.92,0,0,1-4.69-11.93A16.74,16.74,0,0,1,94.07,44.54L119.48,71a16.9,16.9,0,0,1,4.69,11.93,16.69,16.69,0,0,1-5.09,11.74,16.9,16.9,0,0,1-11.94,4.69,16.63,16.63,0,0,1-11.73-5.1ZM16.12,249.42A16.77,16.77,0,0,1,0,232.28,16.7,16.7,0,0,1,17.15,216l36.6.77a16.7,16.7,0,0,1,16.34,17.14l0,.26h0l-.07.6a16.68,16.68,0,0,1-17.1,15.48l-.25,0v0l-.38,0ZM479.6,222.88h.55a16.68,16.68,0,0,1,11.35,4.34A16.86,16.86,0,0,1,497,238.8V239s0,.47,0,.55a16.75,16.75,0,0,1-15.94,16.83l-36.57,1.84a16.73,16.73,0,0,1-1.59-33.43c12.22-.66,24.49-1.4,36.71-1.88Zm-64-149.46A16.68,16.68,0,0,1,439,70.13l0,0a16.51,16.51,0,0,1,6.5,11,16.86,16.86,0,0,1-3.21,12.39l-22,29.29a16.75,16.75,0,1,1-26.78-20.12l22.05-29.32ZM313.34,422.26l-.26,6.79,0,2.36a93.15,93.15,0,0,1-.57,13.36L310,454.44,183.3,466.24l-1.91-5.14-3.82-20.36.22-5.82,135.55-12.66Z"/></g></g></svg>