<svg xmlns="http://www.w3.org/2000/svg" viewBox="0 0 115 123"><defs><style>.cls-1{fill:#f9f9f9;fill-rule:evenodd;}</style></defs><title>project-management-timeline-white</title><g id="Layer_2" data-name="Layer 2"><g id="Layer_1-2" data-name="Layer 1"><path class="cls-1" d="M105.62,76.33l3.92,3.8a2.53,2.53,0,0,1,0,3.65l-3.19,3.1a21.55,21.55,0,0,1,2,5.12h4.08a2.61,2.61,0,0,1,2.6,2.6v4.8a2.61,2.61,0,0,1-2.6,2.6h-4.33a19.83,19.83,0,0,1-2.21,4.62l2.64,2.49a2.55,2.55,0,0,1,0,3.71l-3.71,3.49a2.55,2.55,0,0,1-3.49,0l-3.18-3A22.5,22.5,0,0,1,93,115.11v5.29a2.61,2.61,0,0,1-2.6,2.6H84.6a2.61,2.61,0,0,1-2.6-2.6V116a22.76,22.76,0,0,1-5.08-2.2l-3,2.9a2.54,2.54,0,0,1-3.53,0l-4-3.87a2.55,2.55,0,0,1,0-3.66l3.19-3.07a21.57,21.57,0,0,1-2-5.1h-3A2.61,2.61,0,0,1,62,98.4V92.6A2.61,2.61,0,0,1,64.6,90h4a22.94,22.94,0,0,1,2.1-5.08L68,82a2.54,2.54,0,0,1,0-3.45l3.6-3.92a2.56,2.56,0,0,1,3.75,0l2.8,3.05a20.06,20.06,0,0,1,4.87-2V72.6A2.61,2.61,0,0,1,85.6,70h5.8A2.61,2.61,0,0,1,94,72.6v4.33a22.79,22.79,0,0,1,5.08,2.21L102,76.33a2.55,2.55,0,0,1,3.63,0ZM41.33,82a2.81,2.81,0,0,1-2.5-3,2.74,2.74,0,0,1,2.5-3h12.4a2.81,2.81,0,0,1,2.5,3,2.74,2.74,0,0,1-2.5,3ZM45,112a3,3,0,1,1,0,6H7.08a7.11,7.11,0,0,1-5-2.09,6.94,6.94,0,0,1-2.1-5V7.08a6.94,6.94,0,0,1,2.1-5A6.93,6.93,0,0,1,7.08,0H93.9a7.18,7.18,0,0,1,5,2.07A6.75,6.75,0,0,1,101,7V54.49a3,3,0,0,1-6,0V7a.87.87,0,0,0-.3-.68A.91.91,0,0,0,94,6H7a.91.91,0,0,0-.7.3A.78.78,0,0,0,6,7V111a1,1,0,0,0,1,1H45v0ZM19,74H30a1,1,0,0,1,1,1v9a1,1,0,0,1-1,1H19a1,1,0,0,1-1-1V75a1,1,0,0,1,1-1Zm0-53H30a1,1,0,0,1,1,1v9a1,1,0,0,1-1,1H19a1,1,0,0,1-1-1V22a1,1,0,0,1,1-1Zm22.31,8a2.81,2.81,0,0,1-2.5-3,2.74,2.74,0,0,1,2.5-3H76a2.81,2.81,0,0,1,2.5,3A2.74,2.74,0,0,1,76,29ZM21.83,57a1.73,1.73,0,0,1-2.3-.3l-.2-.2-3.2-3.3a1.81,1.81,0,0,1,.3-2.6,2.13,2.13,0,0,1,2.8-.1l1.7,1.8,5.6-4.5a1.76,1.76,0,0,1,2.5.6,2,2,0,0,1-.2,2.8l-7,5.8Zm17.8-3a2.81,2.81,0,0,1-2.5-3,2.74,2.74,0,0,1,2.5-3h34.7a2.81,2.81,0,0,1,2.5,3,2.74,2.74,0,0,1-2.5,3ZM88,85.46a10.6,10.6,0,1,1-10.6,10.6A10.61,10.61,0,0,1,88,85.46Z"/></g></g></svg>