<svg xmlns="http://www.w3.org/2000/svg" viewBox="0 0 115 122"><defs><style>.cls-1{fill:#500302;fill-rule:evenodd;}</style></defs><title>logoproject-management-timeline-dark</title><g id="Layer_2" data-name="Layer 2"><g id="Layer_1-2" data-name="Layer 1"><path class="cls-1" d="M105.62,75.33l3.92,3.8a2.53,2.53,0,0,1,0,3.65l-3.19,3.1a21.55,21.55,0,0,1,2,5.12h4.08a2.61,2.61,0,0,1,2.6,2.6v5.8a2.61,2.61,0,0,1-2.6,2.6h-4.33a22.79,22.79,0,0,1-2.21,5.08l2.91,3a2.55,2.55,0,0,1,0,3.54l-3.9,4a2.54,2.54,0,0,1-3.65,0l-3.1-3.2a21.55,21.55,0,0,1-5.12,2v3a2.61,2.61,0,0,1-2.6,2.6H84.6a2.61,2.61,0,0,1-2.6-2.6v-4.08a23.43,23.43,0,0,1-5.08-2.1L73.86,116a2.53,2.53,0,0,1-3.44,0l-3.92-3.6a2.54,2.54,0,0,1,0-3.75l3-2.8a20.06,20.06,0,0,1-2-4.87h-3A2.61,2.61,0,0,1,62,98.4V92.6A2.61,2.61,0,0,1,64.6,90h4a22.94,22.94,0,0,1,2.1-5.08L68,82a2.54,2.54,0,0,1,0-3.45l3.6-3.92a2.56,2.56,0,0,1,3.75,0l2.8,3.05a20.06,20.06,0,0,1,4.87-2V71.6A2.61,2.61,0,0,1,85.6,69h5.8A2.61,2.61,0,0,1,94,71.6v4.33a22.79,22.79,0,0,1,5.08,2.21L102,75.33a2.55,2.55,0,0,1,3.63,0ZM41.36,82a2.81,2.81,0,0,1-2.5-3,2.74,2.74,0,0,1,2.5-3h12.4a2.81,2.81,0,0,1,2.5,3,2.74,2.74,0,0,1-2.5,3ZM45,112a3,3,0,1,1,0,6H7.08a7.11,7.11,0,0,1-5-2.09,6.94,6.94,0,0,1-2.1-5V7.08a6.94,6.94,0,0,1,2.1-5A6.93,6.93,0,0,1,7.08,0H93.9a7.18,7.18,0,0,1,5,2.07A6.75,6.75,0,0,1,101,7V54.49a3,3,0,0,1-6,0V7a.87.87,0,0,0-.3-.68A.91.91,0,0,0,94,6H7a.91.91,0,0,0-.7.3A.78.78,0,0,0,6,7V111a1,1,0,0,0,1,1H45v0ZM19,74H30a1,1,0,0,1,1,1v9a1,1,0,0,1-1,1H19a1,1,0,0,1-1-1V75a1,1,0,0,1,1-1Zm0-53H30a1,1,0,0,1,1,1v9a1,1,0,0,1-1,1H19a1,1,0,0,1-1-1V22a1,1,0,0,1,1-1Zm22.34,8a2.81,2.81,0,0,1-2.5-3,2.74,2.74,0,0,1,2.5-3h34.7a2.81,2.81,0,0,1,2.5,3,2.74,2.74,0,0,1-2.5,3ZM21.86,56.75a1.73,1.73,0,0,1-2.3-.3l-.2-.2L16.16,53a1.81,1.81,0,0,1,.3-2.6,2.13,2.13,0,0,1,2.8-.1l1.7,1.8,5.6-4.5a1.76,1.76,0,0,1,2.5.6,2,2,0,0,1-.2,2.8l-7,5.8ZM39.66,54a2.81,2.81,0,0,1-2.5-3,2.74,2.74,0,0,1,2.5-3h34.7a2.81,2.81,0,0,1,2.5,3,2.74,2.74,0,0,1-2.5,3Zm48.4,31.25a10.6,10.6,0,1,1-10.6,10.6,10.61,10.61,0,0,1,10.6-10.6Z"/></g></g></svg>