<svg xmlns="http://www.w3.org/2000/svg" viewBox="0 0 123.17 79.95"><defs><style>.cls-1{fill:#500302;}</style></defs><title>logoAsset 10</title><g id="Layer_2" data-name="Layer 2"><g id="Layer_1-2" data-name="Layer 1"><path class="cls-1" d="M91.71,2.38A3.59,3.59,0,0,1,93.52.49,4.28,4.28,0,0,1,96.43.33,8,8,0,0,1,99.2,1.75a13.55,13.55,0,0,1,5.1,9.76,30.06,30.06,0,0,1-.07,4.35c-.08,1-.21,2.09-.39,3.2h10.57a11.56,11.56,0,0,1,4.76,1.21,7.73,7.73,0,0,1,2.93,2.57,6.35,6.35,0,0,1,1.06,3.9,9.11,9.11,0,0,1-1,3.61,11.05,11.05,0,0,1,.28,4.36,5,5,0,0,1-1.45,3,13.06,13.06,0,0,1-.71,4.92A10.43,10.43,0,0,1,118,46.28a15.54,15.54,0,0,1-.47,2.61,9,9,0,0,1-1.32,2.81h0c-1.79,2.51-3.23,2.45-5.5,2.36H88.9a9.93,9.93,0,0,1-4.58-1A11,11,0,0,1,80.68,50l-.36-.88V25.23l1-.28c2.65-.7,4.74-3,6.36-5.66a39,39,0,0,0,3.64-8.66V4.41a3.89,3.89,0,0,1,.34-2Zm-62.08-1A40,40,0,0,1,72,16.06H65.58A35,35,0,0,0,9.74,22.35l-.07.13A35,35,0,0,0,22.35,70.22l.13.07a35,35,0,0,0,43.79-7.23H72.6A40,40,0,0,1,20,74.59l-.14-.09A39.94,39.94,0,0,1,5.37,20l.1-.14A39.82,39.82,0,0,1,29.63,1.36ZM19.42,18.22l4.28,1.46L27.32,17l-.06,4.52L31,24.1l-4.32,1.34L25.3,29.76l-2.61-3.7-4.52.06,2.71-3.62Zm-9.1,21.34,4.06-2L15,33.08l3.15,3.24,4.46-.76-2.11,4,2.11,4-4.46-.81L15,46l-.64-4.48-4.06-2ZM19.48,60l1.45-4.28-2.7-3.62,4.52.06,2.6-3.69,1.34,4.32L31,54.08l-3.69,2.61.06,4.52L23.76,58.5ZM40,68.75l-2-4-4.47-.65,3.24-3.15L36,56.44l4,2.11,4-2.11-.81,4.5,3.24,3.15-4.44.66-2,4Zm0-58.46,2,4.05,4.47.65-3.24,3.15L44,22.6l-4-2.11L36,22.6l.77-4.46L33.48,15,38,14.34Zm28.54,22.9A2.21,2.21,0,1,0,66.28,31h0A2.21,2.21,0,0,0,68.49,33.19ZM54.72,23.06H75.23a2.1,2.1,0,0,1,2.09,2.09V53a2.1,2.1,0,0,1-2.09,2.09h-25A2.09,2.09,0,0,1,48.17,53c2.27-9.28,2.18-18.54,4.45-27.82A2.11,2.11,0,0,1,54.72,23.06ZM94.85,2.89a1.13,1.13,0,0,0-.53.83v7.69l-.06.4a43.42,43.42,0,0,1-4,9.55c-1.75,2.94-4,5.47-7,6.64V49.43a7.5,7.5,0,0,0,2.38,2,7.37,7.37,0,0,0,3.37.63h21.85c1.35,0,2.2.09,3.11-1.22h0a6.18,6.18,0,0,0,.9-2,13,13,0,0,0,.41-2.63l.44-.94a8.26,8.26,0,0,0,2-3,11.43,11.43,0,0,0,.54-4.61v-.85l.71-.44a2.21,2.21,0,0,0,.86-1.59,9.47,9.47,0,0,0-.36-3.78l.11-1a7.33,7.33,0,0,0,.89-3,4,4,0,0,0-.62-2.33A5.09,5.09,0,0,0,118,23a8.42,8.42,0,0,0-3.52-.9H100.63l.31-1.68c.3-1.64.52-3.2.65-4.67a27.52,27.52,0,0,0,.06-4.06,11,11,0,0,0-4-7.93,5.49,5.49,0,0,0-1.78-1,1.56,1.56,0,0,0-1,0Z"/></g></g></svg>