<svg xmlns="http://www.w3.org/2000/svg" viewBox="0 0 122.6 122.62"><defs><style>.cls-1{fill:#f9f9f9;fill-rule:evenodd;}</style></defs><title>renewable-energy-solar-white</title><g id="Layer_2" data-name="Layer 2"><g id="Layer_1-2" data-name="Layer 1"><path class="cls-1" d="M8.76,53.08c-2.22,6.64-2.29,17.86-.73,25a50.39,50.39,0,0,0,11,22.1l7.58-27.59a2.79,2.79,0,0,1,.7-1.27,2.08,2.08,0,0,1,1.5-.62H83.65a2,2,0,0,1,1.38.53.52.52,0,0,1,.11.1,2.87,2.87,0,0,1,.69,1.27l6.93,25.19A47.09,47.09,0,0,0,98.45,87.1a54.11,54.11,0,0,0,3-11.36c1.12-7.5.53-20.3.53-27.81C93.93,47,90.6,43.08,90.6,35.17V30.7H89.47a1.87,1.87,0,0,1-1.87-1.87V26.57a1.87,1.87,0,0,1,1.87-1.87H94.6V13.27a3,3,0,0,1,3-2.95h0a3,3,0,0,1,3,2.95V24.7h8V13.57a3.79,3.79,0,0,1,3.42-3h0c1.62,0,3.58,3,3.58,3V24.7h5.13a1.87,1.87,0,0,1,1.87,1.87v2.27a1.86,1.86,0,0,1-1.86,1.86H119.6v4c0,7.66-3.42,12.37-11.39,13.13,0,7.73.45,20.65-.62,28.27a60.29,60.29,0,0,1-3.42,13.15,52,52,0,0,1-10.9,17.46,51.17,51.17,0,0,1-26.82,14.78A54.72,54.72,0,0,1,35.87,119,55.74,55.74,0,0,1,17.43,107.3,55.83,55.83,0,0,1,2,79.37C.15,70.79.36,58,3.36,50l0-.09C-9.48,17.58,17.7,12.15,34.37,0c13.71,34.05-.3,50.34-25.61,53.08ZM30.4,65.7a2,2,0,0,1-1.75-1.89c0-1,.79-1.75,1.75-1.11h4.46c1-.64,1.75.15,1.75,1.1a2,2,0,0,1-1.75,1.9Zm2.72-13.05a1.74,1.74,0,1,1,1.72-3l3.88,2.23a1.74,1.74,0,0,1-1.72,3l-3.88-2.23Zm22.71-4.27A15.57,15.57,0,0,1,71.4,64,16,16,0,0,1,71,67.7H40.72a15.63,15.63,0,0,1,4.11-14.76,15.62,15.62,0,0,1,11-4.56ZM77.2,50.25a1.73,1.73,0,1,1,1.74,3l-3.88,2.23a1.73,1.73,0,1,1-1.74-3l3.88-2.23ZM81.31,62.7a1.89,1.89,0,0,1,1.75,1.83,2.58,2.58,0,0,1-1.75,2.17H76.85a2.58,2.58,0,0,1-1.75-2.17,1.89,1.89,0,0,1,1.75-1.83ZM42,42.84a1.72,1.72,0,1,1,3-1.74L47.15,45a1.73,1.73,0,1,1-3,1.74L42,42.84ZM54.6,38.73A1.58,1.58,0,0,1,56.23,37a3.14,3.14,0,0,1,2.37,1.75v4.46a3.12,3.12,0,0,1-2.37,1.74,1.59,1.59,0,0,1-1.63-1.74V38.73Zm12.79,2.71a1.74,1.74,0,0,1,3,1.72L68.18,47a1.74,1.74,0,0,1-3-1.72l2.23-3.88Zm-41,65.26a46.47,46.47,0,0,0,12.78,7H52.6v-7Zm44.16,7a41.51,41.51,0,0,0,12.35-7H58.6v7Z"/><path class="cls-1" d="M9,45.17l.06,0C22.16,29.4,27,28.68,30.38,9.72,25.37,21,11.16,30.27,9,45.17Z"/><path class="cls-1" d="M49.14,87.7l-.55,4H61.53l-.4-4Zm13.19-15,.59,6H74.11l-1.1-6ZM75,72.7l1.1,6h8.74l-1.64-6Zm10,9H77.19l.73,4h8.14l-1.1-4Zm1.91,6H78.49l.74,4H88l-1.1-4Zm2.19,7H79.43l1.47,8H91.26l-2.2-8Zm-10.9,8-1.46-8H65l.78,8Zm-15.11,0-.8-8H47.77l-1.1,8Zm-19.1,0,1.09-8H34l-1.86,8Zm-14.6,0,1.86-8H22.65l-2.21,8Zm-5.64-11h7.88l.92-4h-7.7l-1.1,4Zm1.92-7h7.58l.93-4H26.73l-1.1,4Zm1.24-6h8.48l1.39-6H28.52l-1.65,6Zm11.94-6-1.39,6H47.67l.82-6Zm11.59,0a.81.81,0,0,1,0,.16l-.81,5.84H61l-.59-6ZM64,81.7l.39,4H74.54l-.73-4Zm-26.47,0-.93,4H46l.54-4ZM50,81.7l-.55,4h11.4l-.4-4Zm14.64,6,.4,4H75.8l-.73-4Zm-28.77,0-.92,4H45.07l.54-4Z"/></g></g></svg>