<svg xmlns="http://www.w3.org/2000/svg" viewBox="0 0 122.6 122.62"><defs><style>.cls-1{fill:#500302;fill-rule:evenodd;}</style></defs><title>logorenewable-energy-solar-dark</title><g id="Layer_2" data-name="Layer 2"><g id="Layer_1-2" data-name="Layer 1"><path class="cls-1" d="M8.76,53.08c-2.22,6.64-2.29,17.86-.73,25a50.39,50.39,0,0,0,11,22.1l7.58-27.59a2.79,2.79,0,0,1,.7-1.27,2.08,2.08,0,0,1,1.5-.62H83.65a2,2,0,0,1,1.38.53.52.52,0,0,1,.11.1,2.87,2.87,0,0,1,.69,1.27l6.93,25.19A47.09,47.09,0,0,0,98.45,87.1a54.11,54.11,0,0,0,3-11.36c1.12-7.5.53-20.3.53-27.81C93.93,47,90.6,43.08,90.6,35.17V30.7H89.47a1.87,1.87,0,0,1-1.87-1.87V26.57a1.87,1.87,0,0,1,1.87-1.87H94.6V13.27a3,3,0,0,1,3-2.95h0a3,3,0,0,1,3,2.95V24.7h9V13.27a3,3,0,0,1,3-2.95h0a3,3,0,0,1,3,2.95V24.7h5.13a1.87,1.87,0,0,1,1.87,1.87v2.27a1.86,1.86,0,0,1-1.86,1.86H119.6v4c0,7.66-3.42,12.37-11.39,13.13,0,7.73.45,20.65-.62,28.27a60.29,60.29,0,0,1-3.42,13.15,52,52,0,0,1-10.9,17.46,51.17,51.17,0,0,1-26.82,14.78A54.72,54.72,0,0,1,35.87,119,55.74,55.74,0,0,1,17.43,107.3,55.83,55.83,0,0,1,2,79.37C.15,70.79.36,58,3.36,50l0-.09C-9.48,17.58,17.7,12.15,34.37,0c13.71,34.05-.3,50.34-25.61,53.08ZM30.83,64.7c-1,.49-1.75-.3-1.75-1.25a1.76,1.76,0,0,1,1.75-1.75h4.46A1.76,1.76,0,0,1,37,63.44c0,1-.79,1.75-1.75,1.26Zm2.72-12.41a1.74,1.74,0,1,1,1.72-3l3.88,2.23a1.74,1.74,0,0,1-1.72,3l-3.88-2.23Zm22.71-3.91A15.57,15.57,0,0,1,71.83,64a16,16,0,0,1-.45,3.75H41.15a15.63,15.63,0,0,1,4.11-14.76,15.62,15.62,0,0,1,11-4.56Zm21.37,1.51a1.73,1.73,0,1,1,1.74,3l-3.88,2.23a1.73,1.73,0,0,1-1.74-3l3.88-2.23ZM81.74,61.7c1,.72,1.75,1.51,1.75,2.47a1.47,1.47,0,0,1-1.75,1.53H77.28a1.47,1.47,0,0,1-1.75-1.53c0-1,.79-1.75,1.75-2.47ZM42.38,42.48a1.72,1.72,0,1,1,3-1.74l2.23,3.88a1.73,1.73,0,1,1-3,1.74l-2.2-3.88ZM54.6,38.37a2.31,2.31,0,0,1,2.06-1.75,2.08,2.08,0,0,1,1.94,1.75v4.46a2.07,2.07,0,0,1-1.94,1.74,2.33,2.33,0,0,1-2.06-1.74V38.37Zm13.22,2.71a1.74,1.74,0,1,1,3,1.72l-2.23,3.88a1.74,1.74,0,1,1-3-1.72l2.23-3.88ZM27.37,106.7a46.47,46.47,0,0,0,12.78,7H53.6v-7Zm43.16,7a41.51,41.51,0,0,0,12.35-7H58.6v7Z"/><path class="cls-1" d="M9.43,44.81l.06,0C22.59,29,27.4,28.32,30.81,9.36c-5,11.31-19.22,20.55-21.38,35.45Z"/><path class="cls-1" d="M49.57,87.7l-.55,4H62l-.4-4Zm13.19-15,.59,6H74.54l-1.1-6Zm12.67,0,1.1,6h8.74l-1.64-6Zm10,8H77.62l.73,4h8.14l-1.1-4Zm1.91,7H78.92l.74,4H88.4l-1.1-4Zm2.19,7H79.86l1.47,8H91.69l-2.2-8Zm-10.9,8-1.46-8H65.41l.78,8Zm-15.11,0-.8-8H48.2l-1.1,8Zm-19.1,0,1.09-8H34.4l-1.85,8Zm-14.6,0,1.86-8H23.08l-2.21,8Zm-5.64-11H32l.92-4h-7.7l-1.1,4Zm1.92-7h7.58l.93-4H27.16l-1.1,4Zm1.24-6h8.48l1.39-6H29l-1.65,6Zm12-6-1.4,6H48.11l.82-6Zm11.58,0a.81.81,0,0,1,0,.16L50,78.7H61.47l-.59-6Zm13.57,8,.39,4H75l-.73-4Zm-26.47,0-.93,4h9.46l.54-4Zm12.54,0-.55,4h11.4l-.4-4Zm14.64,7,.4,4H76.23l-.73-4Zm-28.77,0-.92,4H45.5l.54-4Z"/></g></g></svg>