<svg xmlns="http://www.w3.org/2000/svg" viewBox="0 0 94.69 122.46"><defs><style>.cls-1{fill:#500302;}</style></defs><title>Signal-tower 2</title><g id="Layer_2" data-name="Layer 2"><g id="Layer_1-2" data-name="Layer 1"><path class="cls-1" d="M16.25,65.07a2,2,0,1,1-3.08,2.64C4.41,57.47-.11,45.88,0,34.15.11,22.7,4.58,11.19,13.75.68A2.05,2.05,0,0,1,16.61.49a2,2,0,0,1,.19,2.86C8.29,13.08,4.13,23.7,4.05,34.18,4,44.94,8.13,55.58,16.25,65.07ZM52.1,40.63a172.29,172.29,0,0,0,7.45,38.83H34.46A177.23,177.23,0,0,0,42,40.1l0-.05a7.53,7.53,0,0,1-2.22-5.38A7.66,7.66,0,0,1,42,29.29a7.53,7.53,0,0,1,5.38-2.22,7.66,7.66,0,0,1,5.38,2.22,7.62,7.62,0,0,1,1.49,8.63,7.68,7.68,0,0,1-2.14,2.71Zm9.11,41.83c1,2.77,2,5.44,3.16,8H29.67q1.66-3.84,3.13-8Zm4.33,12C68.63,100.81,83,118.37,83,119.88a5.51,5.51,0,0,1-.67,2.58H67c.15-17.13-21.46-25.29-33.43-13.72-3.56,3.45-5.42,8.2-6.28,13.72h-15a4.73,4.73,0,0,1-.58-2.71c.1-1.57,13.79-19.06,16.77-25.29H65.54ZM26.84,55.22a2,2,0,0,1-3,2.69C17.07,50.29,13.61,42.22,13.75,34c.14-8,3.66-15.94,10.84-23.57a2,2,0,0,1,2.94,2.78c-6.46,6.88-9.65,13.92-9.76,20.85-.11,7.15,3,14.31,9,21.16l0,0Zm9.37-9.37a2,2,0,0,1-3.14,2.53,22.74,22.74,0,0,1-5.55-14.25c0-4.8,1.77-9.62,5.46-14.14a2,2,0,0,1,3.14,2.52A18.35,18.35,0,0,0,31.55,34.1c0,4,1.61,8,4.63,11.7l0,.05ZM81.52,67.7a2,2,0,1,1-3.08-2.64c8.12-9.48,12.31-20.16,12.2-30.89C90.56,23.7,86.4,13.08,77.89,3.35A2.06,2.06,0,0,1,78.08.49a2.06,2.06,0,0,1,2.86.19c9.18,10.51,13.64,22,13.75,33.47.11,11.73-4.41,23.32-13.17,33.55ZM70.9,57.88a2,2,0,1,1-3-2.69c6.07-6.85,9.15-14,9-21.16-.11-7-3.3-14-9.76-20.85a2,2,0,1,1,2.94-2.78C77.28,18,80.8,26,80.94,34c.14,8.18-3.3,16.25-10.06,23.87l0,0Zm-9.26-9.51a2,2,0,0,1-3.14-2.53,18.59,18.59,0,0,0,4.63-11.7,18.18,18.18,0,0,0-4.57-11.59A2,2,0,0,1,61.7,20c3.69,4.52,5.49,9.34,5.46,14.14s-1.91,9.76-5.55,14.25l0,0Z"/></g></g></svg>