<svg xmlns="http://www.w3.org/2000/svg" viewBox="0 0 111.4 122.9"><defs><style>.cls-1{fill:#500302;}</style></defs><title>logoAsset 13</title><g id="Layer_2" data-name="Layer 2"><g id="Layer_1-2" data-name="Layer 1"><path class="cls-1" d="M41.46,11a5.7,5.7,0,0,1,1.61-.23,5.81,5.81,0,0,1,2.16.42,6,6,0,0,1,1.85,1.19,5.58,5.58,0,0,1,1.24,1.79,5.52,5.52,0,0,1,.43,2.11v2.94H59.22A98.17,98.17,0,0,1,68.58,8.4c.88-.93,1.65-1.73,2.17-2.3V5.88a3.27,3.27,0,0,1-.35,0A8.72,8.72,0,0,1,73.66,3.2a5.48,5.48,0,0,1,3.63-.34,4.86,4.86,0,0,1,1.24.52,5.08,5.08,0,0,1,1.07.84,5.42,5.42,0,0,1,.84,1.1A5.77,5.77,0,0,1,81,6.62a6.49,6.49,0,0,1,0,3.6A8.58,8.58,0,0,1,79,13.59l0,0c-.14.16-.4.44-.74.84l-.48-.28H78c.21.83.42.84.63.86a4.46,4.46,0,0,1,.58.14h22a4.87,4.87,0,0,1,2,.43,5,5,0,0,1,1.65,1.24,6,6,0,0,1,1.1,1.82,6.28,6.28,0,0,1,.38,2.13,6,6,0,0,1-.23,1.64,4.6,4.6,0,0,1-.25.74h.64a4.64,4.64,0,0,1,1.92.42A5,5,0,0,1,110,24.81,5.73,5.73,0,0,1,111,26.6a5.88,5.88,0,0,1,0,4.16A5.73,5.73,0,0,1,110,32.55a5.25,5.25,0,0,1-1.61,1.21,4.48,4.48,0,0,1-1.92.42h-.18a5.05,5.05,0,0,1,.27.74,5.58,5.58,0,0,1,.23,1.63v.94a6.4,6.4,0,0,1-.37,2.16,5.73,5.73,0,0,1-1.08,1.84,4.87,4.87,0,0,1-1.62,1.25,4.37,4.37,0,0,1-1.93.44h-.43a6.51,6.51,0,0,1,.23.71,6.1,6.1,0,0,1,.2,1.6v0a6.29,6.29,0,0,1-.37,2.14,5.73,5.73,0,0,1-1.08,1.84,5,5,0,0,1-1.62,1.25,4.37,4.37,0,0,1-1.93.44h-2V67.89a102.19,102.19,0,0,1,10.93,10c.93.95,1.73,1.76,2.33,2.33h0l0,0a9.17,9.17,0,0,1,2.64,3.47,6.13,6.13,0,0,1,.34,3.85,6.59,6.59,0,0,1-.52,1.32,5.6,5.6,0,0,1-.84,1.14,5.23,5.23,0,0,1-1.11.89,6.64,6.64,0,0,1-1.33.59,6.38,6.38,0,0,1-3.67,0,8.71,8.71,0,0,1-3.44-2.09l-.85-.8-.55-.51v.06s.38.44.36.67.64.62.64.62v22.77s-.87,1.46-1.15,2.11a5.46,5.46,0,0,1-1.25,1.79,5.59,5.59,0,0,1-1.86,1.19,5.87,5.87,0,0,1-2.18.42,6.13,6.13,0,0,1-1.67-.24l-.89-.28v.36a5.16,5.16,0,0,1-.42,2,5.24,5.24,0,0,1-1.2,1.71,5.4,5.4,0,0,1-1.78,1.15,5.89,5.89,0,0,1-2.1.4,5.6,5.6,0,0,1-3.88-1.55,5.4,5.4,0,0,1-1.2-1.71,5.34,5.34,0,0,1-.42-2v0a6,6,0,0,1-.7.28l0,0a5.48,5.48,0,0,1-1.66.25h0a5.62,5.62,0,0,1-2.13-.42,5.81,5.81,0,0,1-1.81-1.19,5.37,5.37,0,0,1-1.22-1.79,5.52,5.52,0,0,1-.43-2.11v-.86s-1,.19-1.25.26a5.85,5.85,0,0,1-3.8-.19,5.92,5.92,0,0,1-1.86-1.19,5.46,5.46,0,0,1-1.25-1.79,22,22,0,0,0-.84-2.11h0v-2.61H52.67A95.16,95.16,0,0,1,43.3,115c-.9.93-1.66,1.73-2.18,2.3l-.06.07A8.86,8.86,0,0,1,37.81,120a5.48,5.48,0,0,1-3.63.34,4.86,4.86,0,0,1-1.24-.52,5.27,5.27,0,0,1-1.88-1.91l0,0a6.27,6.27,0,0,1-.55-1.3,6.49,6.49,0,0,1,0-3.6,8.58,8.58,0,0,1,1.93-3.37l0,0c.14-.16.4-.44.74-.84l.48-1.54H33.5s-.42,1-.63,1a3.22,3.22,0,0,0-.58,0H10a4.83,4.83,0,0,1-2-.43,5.12,5.12,0,0,1-1.65-1.24,5.59,5.59,0,0,1-1.09-1.82,6.19,6.19,0,0,1-.16-3.77,5.88,5.88,0,0,1,.26-.74H5.09a4.6,4.6,0,0,1-1.92-.42,4.92,4.92,0,0,1-1.62-1.21A5.73,5.73,0,0,1,.49,96.76,5.7,5.7,0,0,1,.1,94.68,6,6,0,0,1,.48,92.6a5.73,5.73,0,0,1,1.06-1.79A5.17,5.17,0,0,1,3.16,89.6a4.45,4.45,0,0,1,1.92-.42h.17c-.1-.24-.19-.49-.27-.74a6,6,0,0,1-.23-1.63v-.94a6.41,6.41,0,0,1,.38-2.16A5.89,5.89,0,0,1,6.2,81.87a5,5,0,0,1,1.63-1.25,4.4,4.4,0,0,1,1.93-.44h.44a6.2,6.2,0,0,1-.23-.69v0a6.11,6.11,0,0,1-.21-1.6v0a6.29,6.29,0,0,1,.38-2.14,5.89,5.89,0,0,1,1.07-1.84,5,5,0,0,1,1.63-1.25,4.4,4.4,0,0,1,1.93-.44h2V55.49c-4.15-2.72-8.37-7.06-11.27-10-.93-1-1.72-1.77-2.31-2.34l0,0A9.31,9.31,0,0,1,.5,39.59a6.2,6.2,0,0,1-.33-3.85,6,6,0,0,1,.51-1.32,5.55,5.55,0,0,1,.83-1.14,5.18,5.18,0,0,1,1.1-.89,6.23,6.23,0,0,1,1.31-.59,6.21,6.21,0,0,1,3.62,0,8.59,8.59,0,0,1,3.4,2.09l.84.8,0,.51V35s.58-.44.6-.67.4-.62.4-.62V10.87a5.32,5.32,0,0,1,.43-2.07A5.43,5.43,0,0,1,14.41,7a5.56,5.56,0,0,1,1.83-1.17,5.82,5.82,0,0,1,2.14-.41A5.91,5.91,0,0,1,20,5.7a4.55,4.55,0,0,1,.73.27V5.51a5.71,5.71,0,0,1,.42-2.11,5.63,5.63,0,0,1,1.2-1.79A5.39,5.39,0,0,1,24.16.42a5.44,5.44,0,0,1,4.19,0,5.67,5.67,0,0,1,1.78,1.19,5.5,5.5,0,0,1,1.62,3.9h0v.22a6.52,6.52,0,0,1,.73-.29,5.41,5.41,0,0,1,1.64-.26h1a5.81,5.81,0,0,1,2.16.42,6,6,0,0,1,1.85,1.19,5.58,5.58,0,0,1,1.24,1.79,5.52,5.52,0,0,1,.43,2.11v.51c.22-.08.46-.17.71-.24Zm-20.71,46V72.18H32.27l.24,0,.11,0,.38,0h0c.17,0,.34,0,.49,1h6.26V55.67c.45-2.58.53-2.63,1.3-3.12A5.55,5.55,0,0,0,42.65,51a11.1,11.1,0,0,0,1.7-3.14,15.47,15.47,0,0,0,.4-3.5V35h0a9.15,9.15,0,0,1,1-.23V16.41s-.89-.57-1-.82v0a2.31,2.31,0,0,0-1.25-1.21h0a2.4,2.4,0,0,0-.9-.17,2.44,2.44,0,0,0-.9.17,2.16,2.16,0,0,0-.76.49,2.25,2.25,0,0,0-.51.72,1.39,1.39,0,0,1-.66.84h0v9.85c.49.28,0,.93,0,.93H37.26a.51.51,0,0,1-.51-.51V11.29a2,2,0,0,0-.18-.84A2.24,2.24,0,0,0,36,9.73h0a2.52,2.52,0,0,0-.82-.49,2.69,2.69,0,0,0-1-.17,2.77,2.77,0,0,0-1,.17,2.28,2.28,0,0,0-.81.49,2.23,2.23,0,0,0-.55.72,2.14,2.14,0,0,0-.18.84V26.67a.51.51,0,0,1-.51.51h-2a.51.51,0,0,1-.51-.51V6.23a2,2,0,0,0-.17-.82v0A2.1,2.1,0,0,0,28,4.68a2.48,2.48,0,0,0-.81-.49,2.79,2.79,0,0,0-1.89,0h0a2.38,2.38,0,0,0-.81.49,2.34,2.34,0,0,0-.55.71,2.14,2.14,0,0,0-.18.84V26.67a.51.51,0,0,1-.51.51H21s-.51-.65-.26-.93V10.92a2.74,2.74,0,0,1-.42-.84,2.3,2.3,0,0,0-.51-.72,2.26,2.26,0,0,0-.76-.49,2.4,2.4,0,0,0-.9-.17,2.44,2.44,0,0,0-.9.17,2.28,2.28,0,0,0-.74.47l0,0a2.19,2.19,0,0,0-.51.73,2.14,2.14,0,0,0-.17.84c0,3.72,0,7.89,0,12.05,0,3.67,0,7.33,0,12l-.28,4.52a.51.51,0,0,1-.29.43l-.9.42a.56.56,0,0,1-.26.07h0a1.72,1.72,0,0,1-.92-.27A8.86,8.86,0,0,1,12,39.4c-.42-.34-.85-.71-1.27-1.08-.89-.8-1.82-1.69-2.17-2h0A5.61,5.61,0,0,0,6.68,35,2.79,2.79,0,0,0,5,35a2,2,0,0,0-.5.23h0a2.06,2.06,0,0,0-.43.35H4A2.09,2.09,0,0,0,3.7,36a2.52,2.52,0,0,0-.21.54,3,3,0,0,0,.25,2,6.21,6.21,0,0,0,1.65,2.08l0,0,.09.08.06.06L7,42.15A117.76,117.76,0,0,0,18.51,52.66l.12.1a6.88,6.88,0,0,1,.71,1,6.5,6.5,0,0,1,.52,1.1,5.74,5.74,0,0,1,.25,1,5.94,5.94,0,0,1,.06,1h.58Zm23-3V72a12,12,0,0,1,3.9,1.3,13.77,13.77,0,0,1,3.62,2.86H62.75A14.61,14.61,0,0,1,64,72.26a14.42,14.42,0,0,1,2.74-3.85V50.34a12,12,0,0,1-3.9-1.3,13.41,13.41,0,0,1-3.61-2.86H47.74a14.27,14.27,0,0,1-1.26,3.92,14.43,14.43,0,0,1-2.73,3.84Zm20,34.28v-8H52.81c-2.44.13-2.48,0-3-.73a5.57,5.57,0,0,0-1.43-1.6,9.94,9.94,0,0,0-2.92-1.69c-1-.38-3.25-1-3.25-1H33.49c-.07.4-.22,1-.22,1H15.22s-.52-.53-.76-.42a2.14,2.14,0,0,0-.66.5,2.46,2.46,0,0,0-.62,1.67,2.72,2.72,0,0,0,.16.91,2.58,2.58,0,0,0,.46.77,2.14,2.14,0,0,0,.66.5,1,1,0,0,0,.76.07H25.34c.28.1.41.61.41.61v2.37s-.13.51-.41,0H10a1.27,1.27,0,0,1-.76.66,2.18,2.18,0,0,0-.67.5A2.46,2.46,0,0,0,8,86a2.72,2.72,0,0,0,.16.91,2.58,2.58,0,0,0,.46.77,2.07,2.07,0,0,0,.67.5.72.72,0,0,0,.76,0H25.33c.28.18,1.42.69,1.42.69v2.51a7.46,7.46,0,0,0-1.42.8H5.19a.58.58,0,0,0-.76-.12h0a2,2,0,0,0-.66.5,2.58,2.58,0,0,0-.46.77,2.67,2.67,0,0,0,0,1.82,2.2,2.2,0,0,0,.44.74l0,0a2.18,2.18,0,0,0,.67.5,1.22,1.22,0,0,1,.76.77H25.34c.28-.6.41-.09.41-.09v2.45s-.13.51-.41.64H10.09a.85.85,0,0,0-.76,0h0a2,2,0,0,0-.64.47l0,0a2.46,2.46,0,0,0-.62,1.67,2.72,2.72,0,0,0,.16.91,2.39,2.39,0,0,0,.46.77,2,2,0,0,0,.64.49h0a1.76,1.76,0,0,0,.76.17l11.72,0c3.64,0,7.28,0,11.68,0l4.22.28a.5.5,0,0,1,.43.3l.4.9a.48.48,0,0,1,.06.24h0a1.84,1.84,0,0,1-.06.47,1.9,1.9,0,0,1-.18.42,9.17,9.17,0,0,1-.72,1.1c-.29.38-.64.82-1,1.27-.74.88-1.53,1.77-1.86,2.14l0,0a5.38,5.38,0,0,0-1.16,1.91,3,3,0,0,0-.08,1.74h0a2,2,0,0,0,.21.5,2,2,0,0,0,.33.43,1.67,1.67,0,0,0,.42.32,1.74,1.74,0,0,0,.49.2,2.69,2.69,0,0,0,1.84-.24,5.75,5.75,0,0,0,1.92-1.63l0,0,.08-.09.07-.08,1.25-1.35A116.52,116.52,0,0,0,50,102.06l.1-.12a7.21,7.21,0,0,1,.93-.72,5.17,5.17,0,0,1,2-.77c.32,0,.65-.07,1,.73h8.78V89.57h0c.42-.08.43-.16.44-.24h0a.59.59,0,0,0,0-.13c0-.13,0-.27,0-.42a3.77,3.77,0,0,1,0-.55ZM48.75,35v8.2h9.91c2.44-.29,2.48-.21,3,.57A5.57,5.57,0,0,0,63,45.35,9.94,9.94,0,0,0,66,47a10,10,0,0,0,3.25.14H78c.07.44.22,1,.22,1H95.81a1.88,1.88,0,0,0,.81-.18,2.58,2.58,0,0,0,.71-.53,2.7,2.7,0,0,0,.49-.81,2.78,2.78,0,0,0,.17-1,2.74,2.74,0,0,0-.17-1,2.57,2.57,0,0,0-.49-.83,2.28,2.28,0,0,0-.7-.53,1.85,1.85,0,0,0-.81-.18H85.3a.55.55,0,0,1-.55-.54V40s1.11-.51,1.39.14h15c.27-.65.52-.71.76-.82a2,2,0,0,0,.64-.47l0,0a2.46,2.46,0,0,0,.62-1.67,2.72,2.72,0,0,0-.16-.91,2.58,2.58,0,0,0-.46-.77,2.07,2.07,0,0,0-.67-.5.54.54,0,0,0-.76.17H86.13a2.21,2.21,0,0,1-.38-.85V31.82s.1-.51.38-.64H106a.85.85,0,0,0,.76,0,2.18,2.18,0,0,0,.67-.5,2.46,2.46,0,0,0,.62-1.67,2.72,2.72,0,0,0-.16-.91,2.2,2.2,0,0,0-.44-.74l0,0a2.26,2.26,0,0,0-.66-.5,1.35,1.35,0,0,1-.76-.62H86.14c-.28.45-.39-.06-.39-.06V23.67s.11-.51.39-1.49h15c.27,1,.52.92.76.81a2.18,2.18,0,0,0,.67-.5,2.46,2.46,0,0,0,.62-1.67,2.72,2.72,0,0,0-.16-.91,2.39,2.39,0,0,0-.46-.77,2.18,2.18,0,0,0-.67-.5,1.76,1.76,0,0,0-.76-.17l-11.59,0c-3.58,0-7.16,0-11.55,0l-4.24-.25a.5.5,0,0,1-.43-.3l-.4-.9a.48.48,0,0,1-.06-.24h0a1.84,1.84,0,0,1,.06-.47,1.9,1.9,0,0,1,.18-.42,9.17,9.17,0,0,1,.72-1.1c.29-.38.64-.82,1-1.27.73-.87,1.52-1.75,1.86-2.13l0-.05a5.38,5.38,0,0,0,1.16-1.91A3,3,0,0,0,78,7.63h0a2,2,0,0,0-.21-.5,2,2,0,0,0-.33-.43A1.67,1.67,0,0,0,77,6.38a1.8,1.8,0,0,0-.49-.22,2.69,2.69,0,0,0-1.84.24A5.75,5.75,0,0,0,72.78,8l0,.05-.08.09-.09.09L71.33,9.61a116.52,116.52,0,0,0-9.82,11.56l-.1.12a8.23,8.23,0,0,1-.93.72,5.17,5.17,0,0,1-2,.77,1.54,1.54,0,0,0-1,.4H47.75V33.66h0c.54.08.53.16.52.24h0a.59.59,0,0,0,0,.13c0,.13,0,.27,0,.42a3.28,3.28,0,0,1,0,.52ZM78,51.18H71.75V67.54c-.49,2.58-.57,2.63-1.34,3.12a5.55,5.55,0,0,0-1.6,1.54,11.1,11.1,0,0,0-1.7,3.14c-.38,1.1-1.36,3.5-1.36,3.5v9.39h0a2.49,2.49,0,0,1,1,.23v18.08a2.17,2.17,0,0,0,.17.81v0a2.27,2.27,0,0,0,.55.73,2.48,2.48,0,0,0,.81.49,2.73,2.73,0,0,0,1,.17,2.77,2.77,0,0,0,1-.17,2.42,2.42,0,0,0,.82-.49,2.35,2.35,0,0,0,.54-.72,2,2,0,0,0,.18-.84h0V96.69a.53.53,0,0,1,.55-.51h1.94a.51.51,0,0,1,.51.51v15.38a2.14,2.14,0,0,0,.18.84,2.21,2.21,0,0,0,.52.7l0,0a2.43,2.43,0,0,0,.79.48h0a2.73,2.73,0,0,0,1,.17,2.77,2.77,0,0,0,1-.17h0a2.52,2.52,0,0,0,.82-.49,2.35,2.35,0,0,0,.54-.72,2,2,0,0,0,.18-.84V96.69a.51.51,0,0,1,.51-.51h2a.51.51,0,0,1,.51.51v20.58a2.14,2.14,0,0,0,.18.84,2.27,2.27,0,0,0,.55.72,2.58,2.58,0,0,0,.81.49,2.82,2.82,0,0,0,1.9,0h0a2.28,2.28,0,0,0,.81-.49,2.23,2.23,0,0,0,.55-.72,2,2,0,0,0,.18-.84V97a1.1,1.1,0,0,1,.25-.77h2.45a1.27,1.27,0,0,1,.3.77v15.33s.27.58.38.84a2.29,2.29,0,0,0,.51.73,2.26,2.26,0,0,0,.76.49,2.4,2.4,0,0,0,.9.17,2.44,2.44,0,0,0,.9-.17,2.26,2.26,0,0,0,.76-.49,2.19,2.19,0,0,0,.51-.73,2.14,2.14,0,0,0,.17-.84c0-3.72,0-7.89,0-12,0-3.67,0-7.33,0-12L96,83.7a.51.51,0,0,1,.29-.43l.9-.42a.56.56,0,0,1,.26-.07h0a1.72,1.72,0,0,1,.92.27,8.86,8.86,0,0,1,1.08.76c.42.34.85.71,1.27,1.08.89.8,1.82,1.69,2.17,2h0a5.61,5.61,0,0,0,1.91,1.25,2.72,2.72,0,0,0,1.72.09A2,2,0,0,0,107,88a2.44,2.44,0,0,0,.43-.35h0a2.09,2.09,0,0,0,.33-.45,2.52,2.52,0,0,0,.21-.54,3,3,0,0,0-.25-2,6.21,6.21,0,0,0-1.65-2.08l0,0-.09-.08-.06-.06-1.36-1.35A119.05,119.05,0,0,0,93,70.55l-.12-.1a7.75,7.75,0,0,1-.71-1,6.5,6.5,0,0,1-.52-1.1,5.74,5.74,0,0,1-.25-1,1.26,1.26,0,0,0-.61-1V50.18H79.18c-.08.81-.16.8-.24.79l-.11,0c-.12,0-.37.23-.37.23h0A1.55,1.55,0,0,0,78,51Z"/></g></g></svg>