<svg xmlns="http://www.w3.org/2000/svg" viewBox="0 0 120.13 95.95"><defs><style>.cls-1,.cls-2{fill:#500302;}.cls-2{fill-rule:evenodd;}</style></defs><title>logotrust-dark</title><g id="Layer_2" data-name="Layer 2"><g id="Layer_1-2" data-name="Layer 1"><path class="cls-1" d="M95.86,41.05a1.37,1.37,0,0,1-.07.29,2.33,2.33,0,0,1-.11.28,4.34,4.34,0,0,0-.09.54.79.79,0,0,1-.37.68v0c.34,0,.35.08,1,.13V76.61a.85.85,0,0,0,0,1.22,3.48,3.48,0,0,0,.76.84h0a2.41,2.41,0,0,0,.81.42,3.19,3.19,0,0,0,1,.12,90.88,90.88,0,0,1,10,0,4.59,4.59,0,0,0,1.73-.21,2.74,2.74,0,0,0,1.17-.79l0,0a4.81,4.81,0,0,0,.87-1.66,11.33,11.33,0,0,0,.46-2.54c0-8.4,2.08-21.57,2.94-30.43a1.48,1.48,0,0,1,0-.2,4.85,4.85,0,0,0-.1-2,2.19,2.19,0,0,0-.75-1.12,4.44,4.44,0,0,0-1.74-.73,13,13,0,0,0-2.67-.24l-.14.22H99.74c0-.21-.06-.21-.09-.22a7.78,7.78,0,0,0-2,.23,3.11,3.11,0,0,0-1.27.65,1.55,1.55,0,0,0-.33.39,3.45,3.45,0,0,0-.24.47ZM82.37,78.21a1.92,1.92,0,0,1-.32-.43,1.84,1.84,0,0,1-.19-.51L66.9,49.7a4.57,4.57,0,0,0-2.14-2.22,2.12,2.12,0,0,0-1.84.35A11.2,11.2,0,0,0,61.39,49c-.55.47-1.08,1-1.61,1.46l-.1.09c-.63.58-1.25,1.17-1.78,1.62l-2.58,2.18,0,0a12.88,12.88,0,0,1-3,1.81,11,11,0,0,1-3.26.82,9.16,9.16,0,0,1-2-.05,8.3,8.3,0,0,1-1.93-.5,7.76,7.76,0,0,1-1.79-1,7.13,7.13,0,0,1-1.43-1.37,7.63,7.63,0,0,1-1.13-2,9,9,0,0,1-.52-2.34v-.58a2,2,0,0,1,.48-1.34l7.76-9.18a31.24,31.24,0,0,0,3.22,2.51l-7.24,8.56a4.52,4.52,0,0,0,.23.68,3.42,3.42,0,0,0,.46.76v0a3.69,3.69,0,0,0,.68.63,4,4,0,0,0,.9.47,4.87,4.87,0,0,0,1.11.26h0a7.17,7.17,0,0,0,1.23,0,7.32,7.32,0,0,0,2.2-.55,8.51,8.51,0,0,0,2.06-1.23L56,48.57c.56-.45,1-.89,1.52-1.32l.31-.28c.63-.57,1.25-1.14,1.88-1.66l.34-.28a38.78,38.78,0,0,0,5-2.34,4.85,4.85,0,0,1,1.6.14c1.64.42,3.25,1.71,4.82,4.34,5.29,8.7,10.3,18.41,15.31,27.36h4.44V43s.26-.1.27-.17c0-.24,0-.48,0-.73s0-.3,0-.44l-5.12-3.4-1.13-.77L84,36.56a40.77,40.77,0,0,0-7.09-4.28,36.13,36.13,0,0,0,2-3.57A27.28,27.28,0,0,1,81.43,30c1.73,1,3.38,2.15,5,3.29l.09.07c.69.48,1.38,1,2.18,1.5,1.47,1,2.93,2,4.4,2.94l.13-.15a4.29,4.29,0,0,1,.48-.47h0a7.08,7.08,0,0,1,2.6-1.44,11.34,11.34,0,0,1,3.33-.47h.09c3.57.16,7.55-.25,11,0a16.15,16.15,0,0,1,3.84.41,8,8,0,0,1,3,1.4,6,6,0,0,1,2,2.79,8.63,8.63,0,0,1,.35,4c-1.28,9.92-2,20.46-3,30.47a15.27,15.27,0,0,1-.74,3.77,8.72,8.72,0,0,1-1.59,2.83,6.68,6.68,0,0,1-2.64,1.88,8.29,8.29,0,0,1-3.47.52c-3.21,0-6.49.07-9.69,0A7.12,7.12,0,0,1,96.54,83a6.42,6.42,0,0,1-2.14-1.14l0,0a7.54,7.54,0,0,1-1.26-1.32,4.74,4.74,0,0,1-.89-2H89A22,22,0,0,1,89.28,81a7.15,7.15,0,0,1-.36,2.41,7.59,7.59,0,0,1-1,2,8.27,8.27,0,0,1-1.63,1.71l0,0a9.62,9.62,0,0,1-1.92,1.16,9.05,9.05,0,0,1-2.17.65,8.29,8.29,0,0,1-2.28.07A7.89,7.89,0,0,1,78,88.58a13.46,13.46,0,0,1-2.27,1.85A10.31,10.31,0,0,1,73,91.64a8.68,8.68,0,0,1-2.77.31,9.84,9.84,0,0,1-2.48-.46,12.22,12.22,0,0,1-2.56,2.13,9.62,9.62,0,0,1-3.09,1.27,9.49,9.49,0,0,1-3.41.11,12.94,12.94,0,0,1-3.31-1,9.77,9.77,0,0,1-.95.63,9.56,9.56,0,0,1-1.24.62,9.15,9.15,0,0,1-1.85.55,9.49,9.49,0,0,1-1.93.14,12.18,12.18,0,0,1-4-.73,9.29,9.29,0,0,1-2.93-1.8A12.92,12.92,0,0,1,40.46,91c-.6-.87-1.15-1.82-1.74-2.84L32.25,76.53H27.61a10.32,10.32,0,0,1-.53,1.68,8,8,0,0,1-1,1.73,6.22,6.22,0,0,1-2.5,2,8.29,8.29,0,0,1-3.48.63h-9a7,7,0,0,1-3.22-.2,6.08,6.08,0,0,1-2.71-1.86,9.72,9.72,0,0,1-1.73-3.16,21.17,21.17,0,0,1-1-4.65l0-.16L.17,44.05A11.83,11.83,0,0,1,.19,40a6.47,6.47,0,0,1,1.37-3,6.09,6.09,0,0,1,2.5-1.8,9.57,9.57,0,0,1,3.24-.64H19.66a15.06,15.06,0,0,1,3.38.31A9,9,0,0,1,26,36a7.11,7.11,0,0,1,1.78,1.63,6.89,6.89,0,0,1,1,1.88H37a37.78,37.78,0,0,1,3.45-2.09,23.49,23.49,0,0,1,3.66-1.55h0c.43-.13.86-.25,1.3-.35a29.55,29.55,0,0,0,3.33,3.55,11.88,11.88,0,0,0-1.23.13,14.22,14.22,0,0,0-2.21.5,17.87,17.87,0,0,0-3.2,1.38,32.58,32.58,0,0,0-3.28,2,2,2,0,0,1-.56.3,2.08,2.08,0,0,1-.66.11h-9.4V61.32l0,11.21h5a1.94,1.94,0,0,1,1,.27,2.13,2.13,0,0,1,.72.74l6.82,12.18c.49.88,1,1.7,1.43,2.41a9.24,9.24,0,0,0,1.45,1.78,4.82,4.82,0,0,0,1.69,1h0a7.63,7.63,0,0,0,2.45.43,5.35,5.35,0,0,0,1.06-.08,4.35,4.35,0,0,0,1-.3c.19-.08.39-.19.59-.29l.27-.16c-1.41-2.7-2.85-5.4-4.24-8.11a2.07,2.07,0,0,1-.14-1.52,2,2,0,0,1,1-1.17l.06,0a1.87,1.87,0,0,1,1.44-.13,2,2,0,0,1,1.15,1q2.38,4.53,4.74,9.08a9.16,9.16,0,0,0,2.29.81,5.31,5.31,0,0,0,2.14,0A5.71,5.71,0,0,0,62,89.67a9,9,0,0,0,1.5-1.27L56.67,77.61a2,2,0,0,1-.26-1.51,1.94,1.94,0,0,1,.86-1.26,1.89,1.89,0,0,1,1.47-.27,2,2,0,0,1,1.23.88l7.21,11.61a6.18,6.18,0,0,0,1.61.39,4.57,4.57,0,0,0,1.65-.15h0A5.51,5.51,0,0,0,72,86.56a9.36,9.36,0,0,0,1.34-1.12L66.88,73a2,2,0,0,1-.13-1.51,2,2,0,0,1,.93-1.18l0,0a1.93,1.93,0,0,1,1.48-.14,2,2,0,0,1,1.15,1l6.8,13.1a3.33,3.33,0,0,0,1.1.37,4,4,0,0,0,1.38,0,5.31,5.31,0,0,0,1.14-.34,5.17,5.17,0,0,0,1-.63,3.54,3.54,0,0,0,.79-.85,3.31,3.31,0,0,0,.47-.94h0a3.36,3.36,0,0,0,.15-1.24,4.79,4.79,0,0,0-.32-1.35l-.53-1ZM14,66.35a2.59,2.59,0,0,1,1.83,4.42l0,0a2.59,2.59,0,0,1-3.63-3.69A2.54,2.54,0,0,1,14,66.35Zm91.65,0a2.59,2.59,0,1,1-1.83.76l0,0a2.55,2.55,0,0,1,1.8-.73ZM23.22,57.69V41.37c.83-.43.7-.79.52-1.08a2,2,0,0,0-.67-.69,4.08,4.08,0,0,0-1.5-.55,10.08,10.08,0,0,0-2.06-.16H19.4c-3.95,0-8,.07-11.91,0a6.11,6.11,0,0,0-1.74.3,2.34,2.34,0,0,0-1.08.7h0a2.77,2.77,0,0,0-.56,1.43,9.11,9.11,0,0,0,.08,2.56c1,7.78,2.21,21.13,2.32,28.9a17.92,17.92,0,0,0,.68,3.55,6,6,0,0,0,1.06,2.07,2.08,2.08,0,0,0,1,.67,3,3,0,0,0,1.38,0l.18,0h.07s.07,0,.11.46H19.9c.06-.47.13-.47.21-.46a4.49,4.49,0,0,0,1.78-.29A2.55,2.55,0,0,0,23,77.93a4.71,4.71,0,0,0,.81-1.79,12.25,12.25,0,0,0,.33-2.54l.06-.09V57.86a.13.13,0,0,1,0-.17Z"/><path class="cls-2" d="M60.23,0C67,4.27,73.05,6.29,78.28,5.81c.91,18.46-5.9,29.35-18,33.9l-.23-.09-.23.09C47.76,35.17,41,24.27,41.86,5.81c5.22.48,11.31-1.54,18-5.81h0l.16.12L60.23,0ZM49.83,17.53l3.74-.05.28.06A15,15,0,0,1,56,19a13.13,13.13,0,0,1,1.36,1.33,55.31,55.31,0,0,1,4.28-6,38.56,38.56,0,0,1,4.53-4.74l.36-.14H70.6l-.83.91a73,73,0,0,0-6.17,8A84.69,84.69,0,0,0,58,27.7l-.52,1-.47-1a24.43,24.43,0,0,0-3.15-5.11,20.62,20.62,0,0,0-4.38-4l.33-1Z"/></g></g></svg>