<svg xmlns="http://www.w3.org/2000/svg" viewBox="0 0 122.88 68.31"><defs><style>.cls-1{fill:#500302;}</style></defs><title>logoAsset 11</title><g id="Layer_2" data-name="Layer 2"><g id="Layer_1-2" data-name="Layer 1"><path class="cls-1" d="M1.1,31.28A106.56,106.56,0,0,1,11.39,20.43C25.76,7.35,42.08.37,59,0s34,5.93,50.29,19.32a122.46,122.46,0,0,1,12.53,12,4.08,4.08,0,0,1,.25,5.18,80.49,80.49,0,0,1-15.36,16.4c-1.43,1.14-2.88,2.22-4.37,3.23l-5.73-6a57.85,57.85,0,0,0,5-3.64,69.71,69.71,0,0,0,11.88-12.15,114.24,114.24,0,0,0-9.39-8.75C89.44,13.51,74,7.84,59.12,8.15S29.77,14.72,16.87,26.46a99.7,99.7,0,0,0-7.48,7.63A80,80,0,0,0,23.88,47.3,67.83,67.83,0,0,0,63.4,60.18c1,0,2.07,0,3.1-.09l7.18,7.41a70.35,70.35,0,0,1-10.25.81A75.87,75.87,0,0,1,19.19,54,89.24,89.24,0,0,1,.88,36.59,4.07,4.07,0,0,1,1.1,31.28Zm61.83-19a22,22,0,0,1,21,28.22,21.53,21.53,0,0,1-2.23,5L94.46,59.08a1,1,0,0,1,0,1.41.23.23,0,0,1-.07.07l-6.27,5.7a1,1,0,0,1-1.41,0l-.07-.07L74.33,53a21.89,21.89,0,0,1-26.91-3.24v0A22,22,0,0,1,54.59,14,21.77,21.77,0,0,1,63,12.32Zm12.26,9a17.48,17.48,0,0,0-5.69-3.8h0a17.63,17.63,0,0,0-13.35,0,17.87,17.87,0,0,0-5.68,3.8,17.52,17.52,0,0,0-3.8,5.7h0a17.52,17.52,0,0,0,28.59,19h0A17.51,17.51,0,0,0,80.4,33.66,17.26,17.26,0,0,0,79,27a17.52,17.52,0,0,0-3.8-5.7ZM59.81,22.71a7.41,7.41,0,1,1-7.39,7.41v0A7.39,7.39,0,0,1,59.81,22.71Z"/></g></g></svg>