<svg xmlns="http://www.w3.org/2000/svg" viewBox="0 0 493.71 170.94"><defs><style>.cls-1{font-size:150px;font-family:TwCenMT-Bold, Tw Cen MT;font-weight:700;}.cls-2{fill:#e51010;}</style></defs><title>geo1</title><g id="Layer_2" data-name="Layer 2"><g id="Layer_1-2" data-name="Layer 1"><text class="cls-1" transform="translate(0 123.07) scale(0.79 1)"><tspan xml:space="preserve">GE   TECH</tspan></text><path class="cls-2" d="M178.92,31.75a3,3,0,0,1-1-.18c-9.1,4.07-16.52,13-18.49,27.93a3.09,3.09,0,0,1-3.49,2.6,3,3,0,0,1-2.7-3.3h0c2.34-17.37,11.25-27.88,22.27-32.71s24.2-3.85,34.86,1.66c11.29,5.85,19.89,16.76,20.51,31.33a3.12,3.12,0,0,1-6.23.24C224.1,47.1,216.87,38,207.38,33l-1.24-.61a3.26,3.26,0,0,1-1.11.17c-2.88-.07-3.6,5-3.76,11.81-.15,5.74.16,11.49.16,17.24,0,4-6.21,4-6.21,0,0-5.79-.28-11.6-.14-17.38.17-6.16.9-11.36,3.15-14.5a36.32,36.32,0,0,0-5.5-.72,35,35,0,0,0-6.93.3c2.07,3.21,2.78,8.35,2.93,14.37s-.13,12-.13,18c0,4-6,4-6,0,0-5.93.31-11.87.16-17.79-.16-7-.91-12.17-3.8-12.09Zm-25.43,31A11.59,11.59,0,0,0,158,67.36c6.93,4.31,19.14,6.42,31.74,6.47s25.66-2,34-6c3.28-1.55,5.75-3.36,7-5.38l5.36,3.09c-1.91,3.06-5.26,5.62-9.59,7.66-17.43,8.28-55.27,9.53-71.88-.85a17.51,17.51,0,0,1-6.8-7.13Z"/><path class="cls-2" d="M166.8,107.24a1.59,1.59,0,0,0,.53.38,1.23,1.23,0,0,0,.57.12,1.28,1.28,0,0,0,.58-.12,1.86,1.86,0,0,0,.49-.35l0,0,4.31-4.34a2.43,2.43,0,0,1,3.13-.27c.5.31,1,.62,1.57.92s1.18.62,1.71.88,1.19.54,1.8.77,1.14.42,1.87.65a2.48,2.48,0,0,1,1.68,2.35v6.63a1.6,1.6,0,0,0,.11.62,1.37,1.37,0,0,0,.35.46,1.67,1.67,0,0,0,.45.34,1.44,1.44,0,0,0,.61.12H195a2.32,2.32,0,0,0,.58-.08,1.79,1.79,0,0,0,.54-.38.92.92,0,0,0,.31-.46,1.37,1.37,0,0,0,.12-.6v-6.06a2.51,2.51,0,0,1,2.06-2.44c.66-.15,1.28-.3,1.83-.45s1.2-.38,1.82-.61a18.46,18.46,0,0,0,1.79-.76c.62-.27,1.17-.57,1.71-.84a2.5,2.5,0,0,1,2.95.42l4.86,4.72s0,0,0,.08a2,2,0,0,0,.47.34,1.8,1.8,0,0,0,1.12,0,1.66,1.66,0,0,0,.55-.38l5.9-5.83a1.5,1.5,0,0,0,.39-.53,1.41,1.41,0,0,0,0-1.14,1.57,1.57,0,0,0-.35-.5v0l-4.39-4.3a2.4,2.4,0,0,1-.27-3.12c.31-.5.62-1,.93-1.56s.62-1.18.9-1.72.54-1.18.77-1.79.43-1.14.66-1.86a2.5,2.5,0,0,1,2.37-1.68h6.83a1.69,1.69,0,0,0,.63-.11,3.24,3.24,0,0,0,.48-.31,1.11,1.11,0,0,0,.31-.45,1.44,1.44,0,0,0,.12-.61V82.6a20.52,20.52,0,0,0,5-2.25v3a6.71,6.71,0,0,1-.47,2.48,6.8,6.8,0,0,1-1.47,2.09A6.54,6.54,0,0,1,232,89.33a7,7,0,0,1-2.57.46h-4.87c-.29.81-.65,1.62-1,2.43s-.65,1.41-1,2l-.11.22,2.92,3a6.07,6.07,0,0,1,1.41,2.1,6.5,6.5,0,0,1,.47,3,6.35,6.35,0,0,1-.5,2,6.58,6.58,0,0,1-1.38,2l-5.77,5.83v0a6.74,6.74,0,0,1-2.05,1.4,6,6,0,0,1-2.47.5,6.56,6.56,0,0,1-2.47-.5,5.69,5.69,0,0,1-2-1.44L207.1,109c-.11,0-.22.12-.3.15-.65.31-1.33.57-2.05.88s-1.41.49-2.13.72a.84.84,0,0,1-.3.08V115a5.88,5.88,0,0,1-.5,2.48,6.09,6.09,0,0,1-1.4,2l0,0a6,6,0,0,1-2,1.37,6.52,6.52,0,0,1-2.43.5h-8.53a7.24,7.24,0,0,1-2.54-.46,6.18,6.18,0,0,1-2.15-1.43,6.35,6.35,0,0,1-1.44-2.11,6.5,6.5,0,0,1-.47-2.5V110h0c-.83-.3-1.66-.66-2.49-1s-1.45-.66-2.08-1l-.23-.12-3.05,3a5.94,5.94,0,0,1-2.15,1.42,6.43,6.43,0,0,1-2.54.5,6.29,6.29,0,0,1-2.54-.5V112a6.65,6.65,0,0,1-2.13-1.41l-5.93-5.75h0a6.87,6.87,0,0,1-1.44-2,6,6,0,0,1-.5-2.46,6.56,6.56,0,0,1,.5-2.47,5.86,5.86,0,0,1,1.47-2l3.49-3.45v0c-.37-.74-.69-1.54-1-2.29,0,0,0-.08,0-.12a21.78,21.78,0,0,1-.73-2.12l-.08-.26H155a6.49,6.49,0,0,1-4.61-1.9l0,0a5.93,5.93,0,0,1-1.39-2,6.49,6.49,0,0,1-.51-2.43v-1.5h1.19a20.25,20.25,0,0,0,5.94,3.84c.16.08.34.15.51.22a21.24,21.24,0,0,0,7.62,1.56l.24.9c.19.57.38,1.18.64,1.84,0,0,0,.07,0,.11.23.62.46,1.15.69,1.69s.54,1.15.84,1.69a2.46,2.46,0,0,1-.42,2.92L161,99.29s0,0-.08,0a2.17,2.17,0,0,0-.34.46,1.12,1.12,0,0,0-.08.54,1.28,1.28,0,0,0,.12.58,1.46,1.46,0,0,0,.38.53l5.84,5.84,0,0ZM192.27,97a17.53,17.53,0,0,1-3.83-.39,18.15,18.15,0,0,1-3.64-1.13,24.74,24.74,0,0,1-3.25-1.76,18.27,18.27,0,0,1-2.81-2.31,16.07,16.07,0,0,1-2.31-2.86,17,17,0,0,1-1.76-3.24c0-.08,0-.16-.08-.2a18.61,18.61,0,0,1-1-3c1.12-.74,2.18-1.55,3.23-2.38h1.36c0,.3.09.6.15.89a16.26,16.26,0,0,0,.75,2.5s0,.08.08.16a14.87,14.87,0,0,0,1.33,2.47,14,14,0,0,0,1.68,2.07,12.28,12.28,0,0,0,2.07,1.68,14.87,14.87,0,0,0,2.47,1.33,13.75,13.75,0,0,0,2.66.82,13.31,13.31,0,0,0,2.85.28,13.6,13.6,0,0,0,2.86-.28,15.63,15.63,0,0,0,2.51-.74s.07,0,.15-.08a14.87,14.87,0,0,0,2.47-1.33,14.61,14.61,0,0,0,2.07-1.68A12.28,12.28,0,0,0,204,85.75a14.87,14.87,0,0,0,1.33-2.47,13.76,13.76,0,0,0,.83-2.66c.06-.29.11-.58.15-.89h5a17.24,17.24,0,0,1-.29,1.91,19.08,19.08,0,0,1-1.14,3.64,22.94,22.94,0,0,1-1.76,3.24,19.55,19.55,0,0,1-2.31,2.86A18.27,18.27,0,0,1,203,93.69a17.93,17.93,0,0,1-3.25,1.76c-.08,0-.16,0-.2.08a18.82,18.82,0,0,1-3.44,1,20.39,20.39,0,0,1-3.83.39Z"/><path class="cls-2" d="M43.11,158.27a4.89,4.89,0,0,1-2.07.62c-3.07,0-4.7-1.87-4.7-5.71v-14H33l-.19-.57,1.29-1.4h2.21v-4c.91-1,2.3-2.21,3.22-3.17l.72.1c-.1,2-.15,4.8-.15,7.1H45.6a1.5,1.5,0,0,1-.28,2H40.13V151.5c0,3.89,1.54,4.61,2.79,4.61a6.76,6.76,0,0,0,2.92-.77l.44,1.25Z"/><path class="cls-2" d="M84.29,154.24c-3.07,3.84-6.43,4.65-8,4.65-5.85,0-9.4-4.8-9.4-10.32a12.32,12.32,0,0,1,3.12-8.4,9.84,9.84,0,0,1,7.15-3.5,7.49,7.49,0,0,1,7.34,7.44c0,1-.19,1.39-1,1.58-1,.19-7.1.63-12.81.82-.15,6.43,3.79,9.07,7.2,9.07a8.11,8.11,0,0,0,5.56-2.45ZM76,138.49c-2.21,0-4.37,2.07-5,5.95,2.68,0,5.37,0,8.2-.14.87,0,1.16-.24,1.16-1C80.4,140.8,78.72,138.49,76,138.49Z"/><path class="cls-2" d="M125.19,154c-2.11,2.78-5.33,4.89-8.21,4.89-6.1,0-9.7-4.94-9.7-10.08a11.39,11.39,0,0,1,4.85-9.41,12.68,12.68,0,0,1,7.3-2.73,7.14,7.14,0,0,1,4.46,1.29,1.53,1.53,0,0,1,.77,1.4,2.42,2.42,0,0,1-1.73,2.16c-.24,0-.43-.1-.91-.48a7.11,7.11,0,0,0-4.85-2c-3.17,0-6,2.69-6,7.68,0,6.67,4.51,8.88,7.3,8.88,2,0,3.64-.53,5.85-2.64Z"/><path class="cls-2" d="M160,158.32V157c2.78-.29,3.17-.53,3.17-3.69V145.4c0-4-1.54-6-4.76-6a6.86,6.86,0,0,0-5.09,2.5v11.33c0,3.12.39,3.4,3.27,3.69v1.35H146.11V157c2.79-.24,3.41-.48,3.41-3.69V130.14c0-2.55-.14-3.17-3.36-3.46v-1.25a29.65,29.65,0,0,0,7.15-1.63v16.37c1.73-1.73,4.37-3.5,7-3.5,3.94,0,6.68,2.45,6.68,8.21v8.44c0,3.17.38,3.41,3.17,3.65v1.35Z"/><path class="cls-2" d="M205.83,158.32V157c2.78-.29,3.07-.62,3.07-3.89v-7.92c0-3.36-1.2-5.61-4.37-5.61A8.4,8.4,0,0,0,199.2,142v11.24c0,3.31.29,3.4,3.12,3.69v1.35H192V157c3.17-.33,3.46-.53,3.46-3.69v-9.89c0-3.12-.34-3.27-2.93-3.7v-1.25a27.1,27.1,0,0,0,6.72-1.92v3.8c1-.68,2-1.4,3.27-2.21a7.29,7.29,0,0,1,4-1.44c3.84,0,6.24,2.83,6.24,7.49v9.12c0,3.26.29,3.4,3.07,3.69v1.35Z"/><path class="cls-2" d="M248.5,136.67c6,0,10.46,4.56,10.46,10.75,0,7.78-5.76,11.47-10.46,11.47a10.54,10.54,0,0,1-10.66-10.7C237.84,140.36,243.94,136.67,248.5,136.67Zm-.58,1.63c-2.93,0-5.57,2.83-5.57,8.4,0,6.1,2.69,10.51,6.63,10.51,3,0,5.47-2.16,5.47-8.73C254.45,142.86,252.15,138.3,247.92,138.3Z"/><path class="cls-2" d="M280.85,158.32V157c3.07-.29,3.46-.53,3.46-3.69v-23c0-2.93-.24-3.21-3.32-3.6v-1.25a33.28,33.28,0,0,0,7.11-1.63v29.48c0,3.16.29,3.4,3.41,3.69v1.35Z"/><path class="cls-2" d="M324,136.67c6,0,10.47,4.56,10.47,10.75,0,7.78-5.76,11.47-10.47,11.47a10.54,10.54,0,0,1-10.65-10.7C313.3,140.36,319.39,136.67,324,136.67Zm-.57,1.63c-2.93,0-5.57,2.83-5.57,8.4,0,6.1,2.69,10.51,6.62,10.51,3,0,5.48-2.16,5.48-8.73C329.91,142.86,327.6,138.3,323.38,138.3Z"/><path class="cls-2" d="M363.79,151.31a3.5,3.5,0,0,0-1.58,2.4c0,.86.81,1.82,3,1.82,1.77,0,3.79,0,5.37,0,3.07,0,7,1,7,5.76,0,5-5.9,9.69-12.29,9.69-5.42,0-8.35-3.17-8.45-6a3.76,3.76,0,0,1,1.2-2.73,43.33,43.33,0,0,1,3.94-3.46,6.22,6.22,0,0,1-3.6-2.59,4.41,4.41,0,0,1-.58-2.07,10.08,10.08,0,0,0,4.42-3.31Zm2.31.48c-4.47,0-8.16-2.74-8.16-7.25,0-5.47,4.89-8,8.64-8a10,10,0,0,1,4.61,1.2,32.07,32.07,0,0,0,6.43-.72l.29.43a6,6,0,0,1-1.78,2.55c-.72,0-2.3-.19-3-.24a7.37,7.37,0,0,1,1.4,4.37C374.55,149.34,370.23,151.79,366.1,151.79Zm1.1,7.1c-2.35,0-3.41.29-4.27,1a5.51,5.51,0,0,0-2.3,3.94c0,2.64,2.73,4.61,6.43,4.61,4.56,0,7.15-2.36,7.15-5.43a3.6,3.6,0,0,0-2.11-3.5A12.86,12.86,0,0,0,367.2,158.89Zm-1.1-20.83c-2.16,0-4.08,2-4.08,5.76s1.92,6.43,4.56,6.43c2.11-.09,4-1.87,4-5.76S368.79,138.06,366.1,138.06Z"/><path class="cls-2" d="M399,158.32V157c3-.29,3.36-.53,3.36-3.79v-9.89c0-3-.14-3.17-3-3.65v-1.15a31.61,31.61,0,0,0,6.82-1.92v16.61c0,3.26.33,3.5,3.45,3.79v1.35Zm5-26.45a2.63,2.63,0,0,1-2.55-2.55,2.6,2.6,0,0,1,2.59-2.64,2.51,2.51,0,0,1,2.45,2.64A2.55,2.55,0,0,1,404,131.87Z"/><path class="cls-2" d="M448.71,154.24c-3.08,3.84-6.44,4.65-8,4.65-5.86,0-9.41-4.8-9.41-10.32a12.32,12.32,0,0,1,3.12-8.4,9.84,9.84,0,0,1,7.15-3.5,7.49,7.49,0,0,1,7.35,7.44c-.05,1-.2,1.39-1,1.58-1,.19-7.11.63-12.82.82-.15,6.43,3.79,9.07,7.2,9.07a8.14,8.14,0,0,0,5.57-2.45Zm-8.26-15.75c-2.21,0-4.37,2.07-5,5.95,2.69,0,5.37,0,8.21-.14.86,0,1.15-.24,1.15-1C444.82,140.8,443.14,138.49,440.45,138.49Z"/><path class="cls-2" d="M483.55,143c-.86-2.79-2.11-4.71-5-4.71a2.91,2.91,0,0,0-3,3.12c0,2.07,1.39,3,4.08,4.27,4.12,2,6.19,3.41,6.19,6.58,0,4.42-4,6.67-7.83,6.67a12.52,12.52,0,0,1-5.71-1.34c-.24-1.39-.67-4-.86-5.62l1.39-.24c.86,3.07,2.54,5.57,5.9,5.57a3.2,3.2,0,0,0,3.36-3.26c0-2.16-1.29-3.27-3.84-4.52-3.36-1.63-6.09-3.16-6.09-6.62s3-6.19,7.49-6.19a25.09,25.09,0,0,1,4.6.62c.15,1.15.48,4.18.72,5.33Z"/></g></g></svg>