<svg xmlns="http://www.w3.org/2000/svg" viewBox="0 0 526.62 181.15"><defs><style>.cls-1{font-size:160px;fill:#e51010;font-family:TwCenMT-Bold, Tw Cen MT;font-weight:700;}.cls-2{fill:#541313;}</style></defs><title>geo2</title><g id="Layer_2" data-name="Layer 2"><g id="Layer_1-2" data-name="Layer 1"><text class="cls-1" transform="translate(0 131.28) scale(0.79 1)"><tspan xml:space="preserve">GE   TECH</tspan></text><path class="cls-2" d="M188.47,32.34a3.38,3.38,0,0,1-1.22-.22c-10.83,4.84-19.64,15.48-22,33.2a3.69,3.69,0,0,1-4.15,3.09,3.59,3.59,0,0,1-3.21-3.93h0c2.78-20.65,13.37-33.14,26.47-38.88s28.76-4.57,41.43,2c13.42,7,23.64,19.91,24.37,37.24a3.71,3.71,0,0,1-7.41.28c-.61-14.52-9.2-25.38-20.49-31.23-.49-.26-1-.5-1.47-.73a3.69,3.69,0,0,1-1.32.21c-3.41-.09-4.27,5.92-4.46,14-.18,6.83.18,13.66.18,20.49,0,4.77-7.37,4.77-7.37,0,0-6.87-.33-13.78-.16-20.65.19-7.31,1-13.49,3.74-17.23a45.22,45.22,0,0,0-6.54-.86,41.93,41.93,0,0,0-8.23.36c2.45,3.82,3.29,9.92,3.48,17.08S200,60.77,200,67.89c0,4.73-7.19,4.73-7.19,0,0-7,.37-14.11.19-21.14-.19-8.32-1.09-14.46-4.52-14.37ZM158.24,69.2a13.94,13.94,0,0,0,5.39,5.46c8.25,5.12,22.75,7.63,37.73,7.68s30.49-2.41,40.36-7.09c3.9-1.85,6.83-4,8.31-6.39l6.37,3.66c-2.27,3.64-6.26,6.69-11.4,9.11-20.71,9.84-65.68,11.33-85.42-1a20.75,20.75,0,0,1-8.09-8.47Z"/><path class="cls-2" d="M174.06,122.05a1.85,1.85,0,0,0,.63.45,1.52,1.52,0,0,0,.68.14,1.49,1.49,0,0,0,.68-.14,2,2,0,0,0,.59-.41l.05,0,5.12-5.16a2.89,2.89,0,0,1,3.72-.32c.59.37,1.18.73,1.86,1.1s1.41.73,2,1,1.41.64,2.14.91,1.36.5,2.22.78a2.93,2.93,0,0,1,2,2.78v7.89a1.76,1.76,0,0,0,.14.73,1.52,1.52,0,0,0,.41.54,2.2,2.2,0,0,0,.54.42,1.77,1.77,0,0,0,.73.13h10a2.69,2.69,0,0,0,.69-.09,2.84,2.84,0,0,0,.65-.45,1.19,1.19,0,0,0,.36-.55,1.57,1.57,0,0,0,.14-.72V123.9a3,3,0,0,1,2.45-2.9c.79-.18,1.52-.36,2.17-.54s1.43-.46,2.17-.73a21.51,21.51,0,0,0,2.13-.9c.73-.32,1.38-.68,2-1a3,3,0,0,1,3.51.5l5.77,5.61c.05,0,.05,0,.05.09a2.18,2.18,0,0,0,.55.41,1.42,1.42,0,0,0,.65.09,1.54,1.54,0,0,0,.69-.14,1.82,1.82,0,0,0,.65-.45l7-6.92a1.83,1.83,0,0,0,.46-.64,1.49,1.49,0,0,0,.14-.68,1.55,1.55,0,0,0-.14-.68,2.12,2.12,0,0,0-.42-.58v0l-5.22-5.11a2.85,2.85,0,0,1-.32-3.71c.37-.59.74-1.18,1.11-1.86s.74-1.4,1.06-2,.65-1.4.93-2.12.5-1.36.78-2.22a3,3,0,0,1,2.82-2h8.11a1.86,1.86,0,0,0,.75-.14,3.12,3.12,0,0,0,.56-.36,1.28,1.28,0,0,0,.38-.54,1.76,1.76,0,0,0,.14-.73v-.8a23.66,23.66,0,0,0,6-2.68v3.57a7.69,7.69,0,0,1-4.9,7.11,8.51,8.51,0,0,1-3.05.54h-5.79c-.35,1-.78,1.93-1.2,2.89s-.77,1.67-1.18,2.4l-.13.27,3.47,3.53a7.1,7.1,0,0,1,1.67,2.49,7.5,7.5,0,0,1,.56,3.61,7.39,7.39,0,0,1-.59,2.35,7.75,7.75,0,0,1-1.64,2.41l-6.86,6.92v.05a8,8,0,0,1-2.43,1.67,7.22,7.22,0,0,1-2.94.59,7.7,7.7,0,0,1-2.93-.59,6.73,6.73,0,0,1-2.39-1.72L222,124.12a4,4,0,0,0-.36.18c-.77.37-1.58.68-2.44,1s-1.67.59-2.53.86a.91.91,0,0,1-.36.09v4.94a7.21,7.21,0,0,1-.58,2.94,7.43,7.43,0,0,1-1.67,2.44l-.05,0a7.16,7.16,0,0,1-2.44,1.63,7.85,7.85,0,0,1-2.89.59H198.51a8.55,8.55,0,0,1-3-.55,7.38,7.38,0,0,1-2.55-1.69,7.59,7.59,0,0,1-1.72-2.52,7.89,7.89,0,0,1-.56-3V125.3h0c-1-.36-2-.79-3-1.22s-1.72-.78-2.46-1.19l-.28-.14-3.62,3.52a7.28,7.28,0,0,1-2.56,1.69,7.78,7.78,0,0,1-3,.6,7.61,7.61,0,0,1-3-.6v-.2a7.93,7.93,0,0,1-2.53-1.66l-7-6.85h0a7.92,7.92,0,0,1-1.7-2.43,7,7,0,0,1-.6-2.93,7.69,7.69,0,0,1,.6-2.92,6.78,6.78,0,0,1,1.75-2.39l4.14-4.1v0c-.44-.88-.82-1.83-1.2-2.72,0,0,0-.09,0-.14a26.36,26.36,0,0,1-.88-2.52l-.09-.32H160a7.58,7.58,0,0,1-5.47-2.25l-.05,0A7.11,7.11,0,0,1,152.84,94a7.65,7.65,0,0,1-.6-2.88V89.36h1.42a24.11,24.11,0,0,0,7.05,4.56c.2.09.4.18.62.26a25.53,25.53,0,0,0,9,1.86c.09.35.18.71.28,1.06.22.68.45,1.41.77,2.19,0,0,0,.09,0,.14.28.73.55,1.36.82,2s.64,1.37,1,2a2.91,2.91,0,0,1-.5,3.47l-5.62,5.7s0,0-.09,0a2.12,2.12,0,0,0-.41.55,1.38,1.38,0,0,0-.09.64,1.53,1.53,0,0,0,.13.68,1.83,1.83,0,0,0,.46.64l6.94,6.93-.05,0Zm30.28-12.2a21.71,21.71,0,0,1-4.56-.46,22.72,22.72,0,0,1-4.33-1.35,29.21,29.21,0,0,1-3.86-2.09,20.88,20.88,0,0,1-3.34-2.75,19.23,19.23,0,0,1-2.75-3.39A21.18,21.18,0,0,1,183.41,96c0-.09,0-.19-.09-.23a22.93,22.93,0,0,1-1.13-3.53c1.33-.89,2.6-1.85,3.84-2.83h1.62c0,.35.11.71.18,1a18.53,18.53,0,0,0,.88,3s0,.09.1.19a17,17,0,0,0,1.58,2.93,16.41,16.41,0,0,0,2,2.46,14.74,14.74,0,0,0,2.46,2,17.34,17.34,0,0,0,2.93,1.58,16.62,16.62,0,0,0,3.16,1,16.35,16.35,0,0,0,3.4.32,16.58,16.58,0,0,0,3.39-.32,17.57,17.57,0,0,0,3-.89s.09,0,.18-.09a17.34,17.34,0,0,0,2.93-1.58,17.14,17.14,0,0,0,2.47-2,14.74,14.74,0,0,0,2-2.46,18.51,18.51,0,0,0,1.58-2.93,17.24,17.24,0,0,0,1-3.17q.1-.51.18-1h6a19,19,0,0,1-.35,2.26A22.28,22.28,0,0,1,225.31,96a28.59,28.59,0,0,1-2.09,3.86,23.18,23.18,0,0,1-2.75,3.39,21.36,21.36,0,0,1-3.34,2.74,21,21,0,0,1-3.86,2.1c-.1,0-.19,0-.24.09a22.86,22.86,0,0,1-4.09,1.26,24.74,24.74,0,0,1-4.56.46Z"/><path d="M279.11,168.47a4.79,4.79,0,0,1-2.07.63c-3.07,0-4.7-1.87-4.7-5.71v-14H269l-.19-.58,1.29-1.39h2.21v-4c.91-1,2.3-2.21,3.22-3.17l.72.09c-.1,2-.15,4.8-.15,7.11h5.48a1.51,1.51,0,0,1-.29,2h-5.19v12.29c0,3.88,1.54,4.6,2.79,4.6a6.91,6.91,0,0,0,2.92-.76l.44,1.24Z"/><path d="M301.33,164.44c-3.07,3.84-6.43,4.66-8,4.66-5.85,0-9.4-4.8-9.4-10.32a12.3,12.3,0,0,1,3.12-8.4,9.82,9.82,0,0,1,7.15-3.51,7.49,7.49,0,0,1,7.34,7.44c0,1-.19,1.4-1,1.59-1,.19-7.1.62-12.81.81-.15,6.44,3.79,9.08,7.2,9.08a8.11,8.11,0,0,0,5.56-2.45Zm-8.25-15.74c-2.21,0-4.37,2.06-5,6,2.68,0,5.37,0,8.2-.15.87,0,1.16-.24,1.16-1A4.46,4.46,0,0,0,293.08,148.7Z"/><path d="M323.27,164.2c-2.11,2.79-5.33,4.9-8.21,4.9-6.1,0-9.7-4.95-9.7-10.08a11.38,11.38,0,0,1,4.85-9.41,12.68,12.68,0,0,1,7.3-2.74,7.07,7.07,0,0,1,4.46,1.3,1.52,1.52,0,0,1,.77,1.39,2.42,2.42,0,0,1-1.73,2.16c-.24,0-.43-.1-.91-.48a7.16,7.16,0,0,0-4.85-2c-3.17,0-5.95,2.69-5.95,7.69-.05,6.67,4.51,8.88,7.3,8.88,2,0,3.64-.53,5.85-2.64Z"/><path d="M339.11,168.52v-1.34c2.78-.29,3.17-.53,3.17-3.7v-7.87c0-4-1.54-6-4.76-6a6.88,6.88,0,0,0-5.09,2.49v11.33c0,3.12.39,3.41,3.27,3.7v1.34H325.23v-1.34c2.79-.24,3.41-.48,3.41-3.7V140.34c0-2.54-.14-3.17-3.36-3.45v-1.25a29.65,29.65,0,0,0,7.15-1.63v16.37c1.73-1.73,4.37-3.51,7-3.51,3.94,0,6.68,2.45,6.68,8.21v8.45c0,3.17.38,3.41,3.17,3.65v1.34Z"/><path d="M366,168.52v-1.34c2.78-.29,3.07-.63,3.07-3.89v-7.92c0-3.36-1.2-5.62-4.37-5.62a8.37,8.37,0,0,0-5.33,2.5v11.23c0,3.31.29,3.41,3.12,3.7v1.34H352.11v-1.34c3.17-.34,3.46-.53,3.46-3.7v-9.89c0-3.12-.34-3.26-2.93-3.69v-1.25a27.54,27.54,0,0,0,6.72-1.92v3.79c1-.67,2-1.39,3.27-2.21a7.37,7.37,0,0,1,4-1.44c3.84,0,6.24,2.83,6.24,7.49v9.12c0,3.27.29,3.41,3.07,3.7v1.34Z"/><path d="M389.7,146.87c6,0,10.46,4.56,10.46,10.76,0,7.77-5.76,11.47-10.46,11.47A10.54,10.54,0,0,1,379,158.39C379,150.57,385.14,146.87,389.7,146.87Zm-.58,1.63c-2.93,0-5.57,2.84-5.57,8.41,0,6.09,2.69,10.51,6.63,10.51,3,0,5.47-2.16,5.47-8.74C395.65,153.06,393.35,148.5,389.12,148.5Z"/><path d="M403.09,168.52v-1.34c3.07-.29,3.45-.53,3.45-3.7v-23c0-2.93-.23-3.22-3.31-3.6v-1.25a34.54,34.54,0,0,0,7.11-1.63v29.47c0,3.17.29,3.41,3.41,3.7v1.34Z"/><path d="M427.23,146.87c6,0,10.47,4.56,10.47,10.76,0,7.77-5.76,11.47-10.47,11.47a10.54,10.54,0,0,1-10.65-10.71C416.58,150.57,422.67,146.87,427.23,146.87Zm-.57,1.63c-2.93,0-5.57,2.84-5.57,8.41,0,6.09,2.69,10.51,6.62,10.51,3,0,5.48-2.16,5.48-8.74C433.19,153.06,430.88,148.5,426.66,148.5Z"/><path d="M448.11,161.51a3.52,3.52,0,0,0-1.58,2.4c0,.87.82,1.83,3,1.83,1.77,0,3.79-.05,5.37-.05,3.07,0,7,1,7,5.76,0,5-5.9,9.7-12.29,9.7-5.42,0-8.35-3.17-8.45-6a3.78,3.78,0,0,1,1.2-2.74,46.42,46.42,0,0,1,3.94-3.46,6.22,6.22,0,0,1-3.6-2.59,4.38,4.38,0,0,1-.58-2.06,10.16,10.16,0,0,0,4.42-3.31Zm2.31.48c-4.47,0-8.16-2.73-8.16-7.24,0-5.48,4.89-8,8.64-8a9.84,9.84,0,0,1,4.61,1.2,32.82,32.82,0,0,0,6.43-.72l.29.43a6,6,0,0,1-1.78,2.54c-.72,0-2.3-.19-3-.24a7.4,7.4,0,0,1,1.4,4.37C458.87,159.55,454.55,162,450.42,162Zm1.1,7.11c-2.35,0-3.41.29-4.27,1A5.52,5.52,0,0,0,445,174c0,2.64,2.73,4.61,6.43,4.61,4.56,0,7.15-2.35,7.15-5.42a3.61,3.61,0,0,0-2.11-3.51A12.89,12.89,0,0,0,451.52,169.1Zm-1.1-20.84c-2.16,0-4.08,2-4.08,5.76s1.92,6.44,4.56,6.44c2.11-.1,4-1.88,4-5.76S453.11,148.26,450.42,148.26Z"/><path d="M464.38,168.52v-1.34c3-.29,3.36-.53,3.36-3.79V153.5c0-3-.14-3.17-3-3.65V148.7a32.19,32.19,0,0,0,6.82-1.92v16.61c0,3.26.33,3.5,3.45,3.79v1.34Zm5-26.45a2.63,2.63,0,0,1-2.55-2.54,2.59,2.59,0,0,1,2.59-2.64,2.5,2.5,0,0,1,2.45,2.64A2.55,2.55,0,0,1,469.38,142.07Z"/><path d="M495.11,164.44c-3.08,3.84-6.44,4.66-8,4.66-5.86,0-9.41-4.8-9.41-10.32a12.3,12.3,0,0,1,3.12-8.4,9.82,9.82,0,0,1,7.15-3.51,7.49,7.49,0,0,1,7.35,7.44c-.05,1-.2,1.4-1,1.59-.95.19-7.1.62-12.81.81-.15,6.44,3.79,9.08,7.2,9.08a8.14,8.14,0,0,0,5.57-2.45Zm-8.26-15.74c-2.21,0-4.37,2.06-5,6,2.69,0,5.37,0,8.21-.15.86,0,1.15-.24,1.15-1C491.22,151,489.54,148.7,486.85,148.7Z"/><path d="M511,153.16c-.86-2.78-2.11-4.7-5-4.7a2.91,2.91,0,0,0-3,3.12c0,2.06,1.39,3,4.08,4.27,4.12,2,6.19,3.41,6.19,6.57,0,4.42-4,6.68-7.83,6.68a12.51,12.51,0,0,1-5.71-1.35c-.24-1.39-.67-4-.86-5.61l1.39-.24c.86,3.07,2.54,5.57,5.9,5.57a3.2,3.2,0,0,0,3.36-3.27c0-2.16-1.29-3.26-3.84-4.51-3.36-1.63-6.09-3.17-6.09-6.63s3-6.19,7.49-6.19a24,24,0,0,1,4.6.63c.15,1.15.48,4.17.72,5.33Z"/></g></g></svg>